<svg version="1.2" xmlns="http://www.w3.org/2000/svg" xmlns:xlink="http://www.w3.org/1999/xlink" overflow="visible" preserveAspectRatio="none" viewBox="0 0 204.1999969482422 202.10000610351562" xml:space="preserve" y="0px" x="0px" id="Layer_1_1626854736101" width="294" height="291"><g transform="translate(1, 1)"><style type="text/css">
	.st0_1626854736101{fill:#FFFFFF;}
	.st1_1626854736101{fill:#25336D;}
	.st2_1626854736101{fill:#F04D23;}
	.st3_1626854736101{font-family:'Montserrat-Medium';}
	.st4_1626854736101{font-size:4.3875px;}
	.st5_1626854736101{font-family:'Roboto-Bold';}
	.st6_1626854736101{font-size:4.2908px;}
	.st7_1626854736101{font-family:'BebasNeue-Bold';}
	.st8_1626854736101{font-size:46.704px;}
	.st9_1626854736101{font-size:19.7757px;}
	.st10_1626854736101{font-size:79.549px;}
	.st11_1626854736101{font-size:24.6813px;}
	.st12_1626854736101{font-size:10.9585px;}
	.st13_1626854736101{fill:none;stroke:#25336D;stroke-miterlimit:10;}
	.st14_1626854736101{fill:none;stroke:#F04D23;stroke-miterlimit:10;}
	.st15_1626854736101{fill:none;stroke:#231F20;stroke-miterlimit:10;}
</style><g>
	<rect height="200.1" width="200.1" class="st0_1626854736101" y="0" x="1.1" vector-effect="non-scaling-stroke"/>
	<g>
		
			<rect height="72.3" width="200.1" class="st1_1626854736101" transform="matrix(-1 -1.224647e-16 1.224647e-16 -1 202.2032 327.7023)" y="127.7" x="1.1" vector-effect="non-scaling-stroke"/>
		<polygon points="134.5,127.8 1.1,0 1.1,127.7" class="st2_1626854736101" vector-effect="non-scaling-stroke"/>
		<rect height="200.1" width="90" class="st0_1626854736101" x="32.4" vector-effect="non-scaling-stroke"/>
	</g>
	<text class="st0_1626854736101 st3_1626854736101 st4_1626854736101" transform="matrix(0 -1 1 0 19.3931 101.2402)" vector-effect="non-scaling-stroke">www.yourwebsite.com</text>
	<g>
		<rect height="11.6" width="51.9" class="st0_1626854736101" y="171.4" x="133.3" vector-effect="non-scaling-stroke"/>
		<g>
			<text class="st2_1626854736101 st5_1626854736101 st6_1626854736101" transform="matrix(1 0 0 1 148.0976 178.9118)" vector-effect="non-scaling-stroke">SHOP NOW</text>
		</g>
	</g>
	<g>
		<g>
			<g>
				<text class="st1_1626854736101 st7_1626854736101 st8_1626854736101" transform="matrix(1 0 0 1 146.1225 68.7639)" vector-effect="non-scaling-stroke">50</text>
			</g>
			<g>
				<g>
					<text class="st1_1626854736101 st7_1626854736101 st9_1626854736101" transform="matrix(0 -1 1 0 166.9662 33.8049)" vector-effect="non-scaling-stroke">%</text>
					<text class="st1_1626854736101 st7_1626854736101 st9_1626854736101" transform="matrix(0 -1 1 0 186.0121 32.6496)" vector-effect="non-scaling-stroke">off</text>
				</g>
			</g>
			<g>
				<text class="st1_1626854736101 st7_1626854736101 st9_1626854736101" transform="matrix(0 -1 1 0 148.8022 75.6994)" vector-effect="non-scaling-stroke">Up to</text>
			</g>
		</g>
	</g>
	<g>
		<text class="st2_1626854736101 st7_1626854736101 st10_1626854736101" transform="matrix(1 0 0 1 19.9467 157.5168)" vector-effect="non-scaling-stroke">BiG</text>
	</g>
	<g>
		<text class="st2_1626854736101 st7_1626854736101 st11_1626854736101" transform="matrix(1 0 0 1 20.9409 182.2883)" vector-effect="non-scaling-stroke">DISCOUNT</text>
	</g>
	<text class="st0_1626854736101 st7_1626854736101 st12_1626854736101" transform="matrix(1 0 0 1 36.9846 95.075)" vector-effect="non-scaling-stroke">3 day lef</text>
	<g>
		<g>
			<line y2="75.6" x2="56.3" y1="0" x1="56.3" class="st13_1626854736101" vector-effect="non-scaling-stroke"/>
			<line y2="75.6" x2="60.8" y1="0" x1="60.8" class="st13_1626854736101" vector-effect="non-scaling-stroke"/>
			<line y2="75.6" x2="65.4" y1="0" x1="65.4" class="st13_1626854736101" vector-effect="non-scaling-stroke"/>
			<line y2="75.6" x2="69.9" y1="0" x1="69.9" class="st13_1626854736101" vector-effect="non-scaling-stroke"/>
			<line y2="75.6" x2="74.5" y1="0" x1="74.5" class="st13_1626854736101" vector-effect="non-scaling-stroke"/>
		</g>
	</g>
	<g>
		<g>
			<line y2="157.5" x2="167" y1="81.9" x1="167" class="st14_1626854736101" vector-effect="non-scaling-stroke"/>
			<line y2="157.5" x2="171.5" y1="81.9" x1="171.5" class="st14_1626854736101" vector-effect="non-scaling-stroke"/>
			<line y2="157.5" x2="176.1" y1="81.9" x1="176.1" class="st14_1626854736101" vector-effect="non-scaling-stroke"/>
			<line y2="157.5" x2="180.6" y1="81.9" x1="180.6" class="st14_1626854736101" vector-effect="non-scaling-stroke"/>
			<line y2="157.5" x2="185.2" y1="81.9" x1="185.2" class="st14_1626854736101" vector-effect="non-scaling-stroke"/>
		</g>
	</g>
	<g>
		<line y2="200" x2="8.7" y1="147.1" x1="8.7" class="st15_1626854736101" vector-effect="non-scaling-stroke"/>
		<line y2="200" x2="13.2" y1="147.1" x1="13.2" class="st15_1626854736101" vector-effect="non-scaling-stroke"/>
		<line y2="200" x2="17.8" y1="147.1" x1="17.8" class="st15_1626854736101" vector-effect="non-scaling-stroke"/>
		<line y2="200" x2="22.3" y1="147.1" x1="22.3" class="st15_1626854736101" vector-effect="non-scaling-stroke"/>
		<line y2="200" x2="26.9" y1="147.1" x1="26.9" class="st15_1626854736101" vector-effect="non-scaling-stroke"/>
	</g>
</g></g></svg>