<svg version="1.2" xmlns="http://www.w3.org/2000/svg" xmlns:xlink="http://www.w3.org/1999/xlink" overflow="visible" preserveAspectRatio="none" viewBox="0 0 204.1999969482422 202.10000610351562" xml:space="preserve" y="0px" x="0px" id="Layer_1_1626854479379" width="301" height="298"><g transform="translate(1, 1)"><style type="text/css">
	.st0_1626854479379{fill:#FFFFFF;}
	.st1_1626854479379{fill:#F04D23;}
	.st2_1626854479379{fill:#25336D;}
	.st3_1626854479379{font-family:'Montserrat-Medium';}
	.st4_1626854479379{font-size:4.3875px;}
	.st5_1626854479379{font-family:'AbhayaLibre-Bold';}
	.st6_1626854479379{font-size:35.2488px;}
	.st7_1626854479379{fill:#0E1140;}
	.st8_1626854479379{font-size:13.143px;}
	.st9_1626854479379{font-family:'Roboto-Bold';}
	.st10_1626854479379{font-size:4.2908px;}
	.st11_1626854479379{fill:none;stroke:#FFFFFF;stroke-miterlimit:10;}
	.st12_1626854479379{fill:none;stroke:#F04D23;stroke-miterlimit:10;}
	.st13_1626854479379{font-size:29.0355px;}
	.st14_1626854479379{font-size:10.4793px;}
</style><g>
	<rect height="200.1" width="200.1" class="st0_1626854479379" x="5.1" vector-effect="non-scaling-stroke"/>
	<rect height="200.1" width="125.7" class="st1_1626854479379" x="5.1" vector-effect="non-scaling-stroke"/>
	<rect height="50.7" width="7.7" class="st2_1626854479379" y="105.2" x="5.1" vector-effect="non-scaling-stroke"/>
	<rect height="69.9" width="7.7" class="st2_1626854479379" y="22.4" x="197.5" vector-effect="non-scaling-stroke"/>
	<g>
		<text class="st2_1626854479379 st3_1626854479379 st4_1626854479379" transform="matrix(1 0 0 1 140.9399 14.0396)" vector-effect="non-scaling-stroke">www.yourwebsite.com</text>
	</g>
	<g>
		<text transform="matrix(1 0 0 1 21.7016 146.978)" vector-effect="non-scaling-stroke"><tspan class="st0_1626854479379 st5_1626854479379 st6_1626854479379" y="0" x="0" vector-effect="non-scaling-stroke">Special</tspan><tspan class="st7_1626854479379 st5_1626854479379 st6_1626854479379" y="0" x="104.4" vector-effect="non-scaling-stroke"> </tspan><tspan class="st2_1626854479379 st5_1626854479379 st6_1626854479379" y="0" x="111.9" vector-effect="non-scaling-stroke">Sale</tspan></text>
	</g>
	<g>
		<text class="st0_1626854479379 st5_1626854479379 st8_1626854479379" transform="matrix(1 0 0 1 19.4292 118.4595)" vector-effect="non-scaling-stroke">Clearance</text>
	</g>
	<g>
		<g>
			<g>
				<text class="st2_1626854479379 st9_1626854479379 st10_1626854479379" transform="matrix(1 0 0 1 157.7192 181.0835)" vector-effect="non-scaling-stroke">SHOP NOW</text>
			</g>
			<g>
				<polygon points="168.9,176.5 167.7,176.5 168.3,175.5 168.9,174.5 169.5,175.5 170.1,176.5" class="st2_1626854479379" vector-effect="non-scaling-stroke"/>
			</g>
		</g>
	</g>
	<g>
		<path d="M20.2,0c0,3.8,3.2,3.8,3.2,7.5c0,3.8-3.2,3.8-3.2,7.5c0,3.8,3.2,3.8,3.2,7.5c0,3.8-3.2,3.8-3.2,7.5    c0,3.8,3.2,3.8,3.2,7.5c0,3.8-3.2,3.8-3.2,7.5c0,3.8,3.2,3.8,3.2,7.5c0,3.8-3.2,3.8-3.2,7.5c0,3.8,3.2,3.8,3.2,7.5    c0,3.8-3.2,3.8-3.2,7.5c0,3.8,3.2,3.8,3.2,7.5c0,3.8-3.2,3.8-3.2,7.5" class="st11_1626854479379" vector-effect="non-scaling-stroke"/>
		<path d="M26.4,0c0,3.8,3.2,3.8,3.2,7.5c0,3.8-3.2,3.8-3.2,7.5c0,3.8,3.2,3.8,3.2,7.5c0,3.8-3.2,3.8-3.2,7.5    c0,3.8,3.2,3.8,3.2,7.5c0,3.8-3.2,3.8-3.2,7.5c0,3.8,3.2,3.8,3.2,7.5c0,3.8-3.2,3.8-3.2,7.5c0,3.8,3.2,3.8,3.2,7.5    c0,3.8-3.2,3.8-3.2,7.5c0,3.8,3.2,3.8,3.2,7.5c0,3.8-3.2,3.8-3.2,7.5" class="st11_1626854479379" vector-effect="non-scaling-stroke"/>
		<path d="M32.5,0c0,3.8,3.2,3.8,3.2,7.5c0,3.8-3.2,3.8-3.2,7.5c0,3.8,3.2,3.8,3.2,7.5c0,3.8-3.2,3.8-3.2,7.5    c0,3.8,3.2,3.8,3.2,7.5c0,3.8-3.2,3.8-3.2,7.5c0,3.8,3.2,3.8,3.2,7.5c0,3.8-3.2,3.8-3.2,7.5c0,3.8,3.2,3.8,3.2,7.5    c0,3.8-3.2,3.8-3.2,7.5c0,3.8,3.2,3.8,3.2,7.5c0,3.8-3.2,3.8-3.2,7.5" class="st11_1626854479379" vector-effect="non-scaling-stroke"/>
		<path d="M38.7,0c0,3.8,3.2,3.8,3.2,7.5c0,3.8-3.2,3.8-3.2,7.5c0,3.8,3.2,3.8,3.2,7.5c0,3.8-3.2,3.8-3.2,7.5    c0,3.8,3.2,3.8,3.2,7.5c0,3.8-3.2,3.8-3.2,7.5c0,3.8,3.2,3.8,3.2,7.5c0,3.8-3.2,3.8-3.2,7.5c0,3.8,3.2,3.8,3.2,7.5    c0,3.8-3.2,3.8-3.2,7.5c0,3.8,3.2,3.8,3.2,7.5c0,3.8-3.2,3.8-3.2,7.5" class="st11_1626854479379" vector-effect="non-scaling-stroke"/>
		<path d="M44.9,0c0,3.8,3.2,3.8,3.2,7.5c0,3.8-3.2,3.8-3.2,7.5c0,3.8,3.2,3.8,3.2,7.5c0,3.8-3.2,3.8-3.2,7.5    c0,3.8,3.2,3.8,3.2,7.5c0,3.8-3.2,3.8-3.2,7.5c0,3.8,3.2,3.8,3.2,7.5c0,3.8-3.2,3.8-3.2,7.5c0,3.8,3.2,3.8,3.2,7.5    c0,3.8-3.2,3.8-3.2,7.5c0,3.8,3.2,3.8,3.2,7.5c0,3.8-3.2,3.8-3.2,7.5" class="st11_1626854479379" vector-effect="non-scaling-stroke"/>
		<path d="M51,0c0,3.8,3.2,3.8,3.2,7.5c0,3.8-3.2,3.8-3.2,7.5c0,3.8,3.2,3.8,3.2,7.5c0,3.8-3.2,3.8-3.2,7.5    c0,3.8,3.2,3.8,3.2,7.5c0,3.8-3.2,3.8-3.2,7.5c0,3.8,3.2,3.8,3.2,7.5c0,3.8-3.2,3.8-3.2,7.5c0,3.8,3.2,3.8,3.2,7.5    c0,3.8-3.2,3.8-3.2,7.5c0,3.8,3.2,3.8,3.2,7.5c0,3.8-3.2,3.8-3.2,7.5" class="st11_1626854479379" vector-effect="non-scaling-stroke"/>
		<path d="M57.2,0c0,3.8,3.2,3.8,3.2,7.5c0,3.8-3.2,3.8-3.2,7.5c0,3.8,3.2,3.8,3.2,7.5c0,3.8-3.2,3.8-3.2,7.5    c0,3.8,3.2,3.8,3.2,7.5c0,3.8-3.2,3.8-3.2,7.5c0,3.8,3.2,3.8,3.2,7.5c0,3.8-3.2,3.8-3.2,7.5c0,3.8,3.2,3.8,3.2,7.5    c0,3.8-3.2,3.8-3.2,7.5c0,3.8,3.2,3.8,3.2,7.5c0,3.8-3.2,3.8-3.2,7.5" class="st11_1626854479379" vector-effect="non-scaling-stroke"/>
		<path d="M63.3,0c0,3.8,3.2,3.8,3.2,7.5c0,3.8-3.2,3.8-3.2,7.5c0,3.8,3.2,3.8,3.2,7.5c0,3.8-3.2,3.8-3.2,7.5    c0,3.8,3.2,3.8,3.2,7.5c0,3.8-3.2,3.8-3.2,7.5c0,3.8,3.2,3.8,3.2,7.5c0,3.8-3.2,3.8-3.2,7.5c0,3.8,3.2,3.8,3.2,7.5    c0,3.8-3.2,3.8-3.2,7.5c0,3.8,3.2,3.8,3.2,7.5c0,3.8-3.2,3.8-3.2,7.5" class="st11_1626854479379" vector-effect="non-scaling-stroke"/>
		<path d="M69.5,0c0,3.8,3.2,3.8,3.2,7.5c0,3.8-3.2,3.8-3.2,7.5c0,3.8,3.2,3.8,3.2,7.5c0,3.8-3.2,3.8-3.2,7.5    c0,3.8,3.2,3.8,3.2,7.5c0,3.8-3.2,3.8-3.2,7.5c0,3.8,3.2,3.8,3.2,7.5c0,3.8-3.2,3.8-3.2,7.5c0,3.8,3.2,3.8,3.2,7.5    c0,3.8-3.2,3.8-3.2,7.5c0,3.8,3.2,3.8,3.2,7.5c0,3.8-3.2,3.8-3.2,7.5" class="st11_1626854479379" vector-effect="non-scaling-stroke"/>
		<path d="M75.6,0c0,3.8,3.2,3.8,3.2,7.5c0,3.8-3.2,3.8-3.2,7.5c0,3.8,3.2,3.8,3.2,7.5c0,3.8-3.2,3.8-3.2,7.5    c0,3.8,3.2,3.8,3.2,7.5c0,3.8-3.2,3.8-3.2,7.5c0,3.8,3.2,3.8,3.2,7.5c0,3.8-3.2,3.8-3.2,7.5c0,3.8,3.2,3.8,3.2,7.5    c0,3.8-3.2,3.8-3.2,7.5c0,3.8,3.2,3.8,3.2,7.5c0,3.8-3.2,3.8-3.2,7.5" class="st11_1626854479379" vector-effect="non-scaling-stroke"/>
	</g>
	<g>
		<path d="M20.2,169.9c0,3.8,3.2,3.8,3.2,7.5c0,3.8-3.2,3.8-3.2,7.5c0,3.8,3.2,3.8,3.2,7.5c0,3.8-3.2,3.8-3.2,7.5" class="st11_1626854479379" vector-effect="non-scaling-stroke"/>
		<path d="M26.4,169.9c0,3.8,3.2,3.8,3.2,7.5c0,3.8-3.2,3.8-3.2,7.5c0,3.8,3.2,3.8,3.2,7.5c0,3.8-3.2,3.8-3.2,7.5" class="st11_1626854479379" vector-effect="non-scaling-stroke"/>
		<path d="M32.5,169.9c0,3.8,3.2,3.8,3.2,7.5c0,3.8-3.2,3.8-3.2,7.5c0,3.8,3.2,3.8,3.2,7.5c0,3.8-3.2,3.8-3.2,7.5" class="st11_1626854479379" vector-effect="non-scaling-stroke"/>
		<path d="M38.7,169.9c0,3.8,3.2,3.8,3.2,7.5c0,3.8-3.2,3.8-3.2,7.5c0,3.8,3.2,3.8,3.2,7.5c0,3.8-3.2,3.8-3.2,7.5" class="st11_1626854479379" vector-effect="non-scaling-stroke"/>
		<path d="M44.9,169.9c0,3.8,3.2,3.8,3.2,7.5c0,3.8-3.2,3.8-3.2,7.5c0,3.8,3.2,3.8,3.2,7.5c0,3.8-3.2,3.8-3.2,7.5" class="st11_1626854479379" vector-effect="non-scaling-stroke"/>
		<path d="M51,169.9c0,3.8,3.2,3.8,3.2,7.5c0,3.8-3.2,3.8-3.2,7.5c0,3.8,3.2,3.8,3.2,7.5c0,3.8-3.2,3.8-3.2,7.5" class="st11_1626854479379" vector-effect="non-scaling-stroke"/>
		<path d="M57.2,169.9c0,3.8,3.2,3.8,3.2,7.5c0,3.8-3.2,3.8-3.2,7.5c0,3.8,3.2,3.8,3.2,7.5c0,3.8-3.2,3.8-3.2,7.5" class="st11_1626854479379" vector-effect="non-scaling-stroke"/>
		<path d="M63.3,169.9c0,3.8,3.2,3.8,3.2,7.5c0,3.8-3.2,3.8-3.2,7.5c0,3.8,3.2,3.8,3.2,7.5c0,3.8-3.2,3.8-3.2,7.5" class="st11_1626854479379" vector-effect="non-scaling-stroke"/>
		<path d="M69.5,169.9c0,3.8,3.2,3.8,3.2,7.5c0,3.8-3.2,3.8-3.2,7.5c0,3.8,3.2,3.8,3.2,7.5c0,3.8-3.2,3.8-3.2,7.5" class="st11_1626854479379" vector-effect="non-scaling-stroke"/>
		<path d="M75.6,169.9c0,3.8,3.2,3.8,3.2,7.5c0,3.8-3.2,3.8-3.2,7.5c0,3.8,3.2,3.8,3.2,7.5c0,3.8-3.2,3.8-3.2,7.5" class="st11_1626854479379" vector-effect="non-scaling-stroke"/>
	</g>
	<g>
		<g>
			<path d="M130.9,80.4c3.1,0,3.1-2.6,6.2-2.6c3.1,0,3.1,2.6,6.2,2.6c3.1,0,3.1-2.6,6.2-2.6c3.1,0,3.1,2.6,6.2,2.6     c3.1,0,3.1-2.6,6.2-2.6c3.1,0,3.1,2.6,6.2,2.6c3.1,0,3.1-2.6,6.2-2.6c3.1,0,3.1,2.6,6.2,2.6c3.1,0,3.1-2.6,6.2-2.6     c3.1,0,3.1,2.6,6.2,2.6c3.1,0,3.1-2.6,6.2-2.6c3.1,0,3.1,2.6,6.2,2.6" class="st12_1626854479379" vector-effect="non-scaling-stroke"/>
			<path d="M130.9,75.4c3.1,0,3.1-2.6,6.2-2.6c3.1,0,3.1,2.6,6.2,2.6c3.1,0,3.1-2.6,6.2-2.6c3.1,0,3.1,2.6,6.2,2.6     c3.1,0,3.1-2.6,6.2-2.6c3.1,0,3.1,2.6,6.2,2.6c3.1,0,3.1-2.6,6.2-2.6c3.1,0,3.1,2.6,6.2,2.6c3.1,0,3.1-2.6,6.2-2.6     c3.1,0,3.1,2.6,6.2,2.6c3.1,0,3.1-2.6,6.2-2.6c3.1,0,3.1,2.6,6.2,2.6" class="st12_1626854479379" vector-effect="non-scaling-stroke"/>
			<path d="M130.9,70.3c3.1,0,3.1-2.6,6.2-2.6c3.1,0,3.1,2.6,6.2,2.6c3.1,0,3.1-2.6,6.2-2.6c3.1,0,3.1,2.6,6.2,2.6     c3.1,0,3.1-2.6,6.2-2.6c3.1,0,3.1,2.6,6.2,2.6c3.1,0,3.1-2.6,6.2-2.6c3.1,0,3.1,2.6,6.2,2.6c3.1,0,3.1-2.6,6.2-2.6     c3.1,0,3.1,2.6,6.2,2.6c3.1,0,3.1-2.6,6.2-2.6c3.1,0,3.1,2.6,6.2,2.6" class="st12_1626854479379" vector-effect="non-scaling-stroke"/>
			<path d="M130.9,65.2c3.1,0,3.1-2.6,6.2-2.6c3.1,0,3.1,2.6,6.2,2.6c3.1,0,3.1-2.6,6.2-2.6c3.1,0,3.1,2.6,6.2,2.6     c3.1,0,3.1-2.6,6.2-2.6c3.1,0,3.1,2.6,6.2,2.6c3.1,0,3.1-2.6,6.2-2.6c3.1,0,3.1,2.6,6.2,2.6c3.1,0,3.1-2.6,6.2-2.6     c3.1,0,3.1,2.6,6.2,2.6c3.1,0,3.1-2.6,6.2-2.6c3.1,0,3.1,2.6,6.2,2.6" class="st12_1626854479379" vector-effect="non-scaling-stroke"/>
			<path d="M130.9,60.2c3.1,0,3.1-2.6,6.2-2.6c3.1,0,3.1,2.6,6.2,2.6c3.1,0,3.1-2.6,6.2-2.6c3.1,0,3.1,2.6,6.2,2.6     c3.1,0,3.1-2.6,6.2-2.6c3.1,0,3.1,2.6,6.2,2.6c3.1,0,3.1-2.6,6.2-2.6c3.1,0,3.1,2.6,6.2,2.6c3.1,0,3.1-2.6,6.2-2.6     c3.1,0,3.1,2.6,6.2,2.6c3.1,0,3.1-2.6,6.2-2.6c3.1,0,3.1,2.6,6.2,2.6" class="st12_1626854479379" vector-effect="non-scaling-stroke"/>
			<path d="M130.9,55.1c3.1,0,3.1-2.6,6.2-2.6c3.1,0,3.1,2.6,6.2,2.6c3.1,0,3.1-2.6,6.2-2.6c3.1,0,3.1,2.6,6.2,2.6     c3.1,0,3.1-2.6,6.2-2.6c3.1,0,3.1,2.6,6.2,2.6c3.1,0,3.1-2.6,6.2-2.6c3.1,0,3.1,2.6,6.2,2.6c3.1,0,3.1-2.6,6.2-2.6     c3.1,0,3.1,2.6,6.2,2.6c3.1,0,3.1-2.6,6.2-2.6c3.1,0,3.1,2.6,6.2,2.6" class="st12_1626854479379" vector-effect="non-scaling-stroke"/>
			<path d="M130.9,50.1c3.1,0,3.1-2.6,6.2-2.6c3.1,0,3.1,2.6,6.2,2.6c3.1,0,3.1-2.6,6.2-2.6c3.1,0,3.1,2.6,6.2,2.6     c3.1,0,3.1-2.6,6.2-2.6c3.1,0,3.1,2.6,6.2,2.6c3.1,0,3.1-2.6,6.2-2.6c3.1,0,3.1,2.6,6.2,2.6c3.1,0,3.1-2.6,6.2-2.6     c3.1,0,3.1,2.6,6.2,2.6c3.1,0,3.1-2.6,6.2-2.6c3.1,0,3.1,2.6,6.2,2.6" class="st12_1626854479379" vector-effect="non-scaling-stroke"/>
			<path d="M130.9,45c3.1,0,3.1-2.6,6.2-2.6c3.1,0,3.1,2.6,6.2,2.6c3.1,0,3.1-2.6,6.2-2.6c3.1,0,3.1,2.6,6.2,2.6     c3.1,0,3.1-2.6,6.2-2.6c3.1,0,3.1,2.6,6.2,2.6c3.1,0,3.1-2.6,6.2-2.6c3.1,0,3.1,2.6,6.2,2.6c3.1,0,3.1-2.6,6.2-2.6     c3.1,0,3.1,2.6,6.2,2.6c3.1,0,3.1-2.6,6.2-2.6c3.1,0,3.1,2.6,6.2,2.6" class="st12_1626854479379" vector-effect="non-scaling-stroke"/>
			<path d="M130.9,40c3.1,0,3.1-2.6,6.2-2.6c3.1,0,3.1,2.6,6.2,2.6c3.1,0,3.1-2.6,6.2-2.6c3.1,0,3.1,2.6,6.2,2.6     c3.1,0,3.1-2.6,6.2-2.6c3.1,0,3.1,2.6,6.2,2.6c3.1,0,3.1-2.6,6.2-2.6c3.1,0,3.1,2.6,6.2,2.6c3.1,0,3.1-2.6,6.2-2.6     c3.1,0,3.1,2.6,6.2,2.6c3.1,0,3.1-2.6,6.2-2.6c3.1,0,3.1,2.6,6.2,2.6" class="st12_1626854479379" vector-effect="non-scaling-stroke"/>
			<path d="M130.9,34.9c3.1,0,3.1-2.6,6.2-2.6c3.1,0,3.1,2.6,6.2,2.6c3.1,0,3.1-2.6,6.2-2.6c3.1,0,3.1,2.6,6.2,2.6     c3.1,0,3.1-2.6,6.2-2.6c3.1,0,3.1,2.6,6.2,2.6c3.1,0,3.1-2.6,6.2-2.6c3.1,0,3.1,2.6,6.2,2.6c3.1,0,3.1-2.6,6.2-2.6     c3.1,0,3.1,2.6,6.2,2.6c3.1,0,3.1-2.6,6.2-2.6c3.1,0,3.1,2.6,6.2,2.6" class="st12_1626854479379" vector-effect="non-scaling-stroke"/>
		</g>
	</g>
	<ellipse ry="30.9" rx="30.9" cy="76.2" cx="130.9" class="st2_1626854479379" transform="matrix(0.916 -0.4012 0.4012 0.916 -19.5916 58.9109)" vector-effect="non-scaling-stroke"/>
	<g>
		<g>
			<text class="st0_1626854479379 st5_1626854479379 st13_1626854479379" transform="matrix(1 0 0 1 110.1362 86.7398)" vector-effect="non-scaling-stroke">10</text>
		</g>
		<g>
			<text class="st0_1626854479379 st5_1626854479379 st14_1626854479379" transform="matrix(1 0 0 1 140.8247 77.4009)" vector-effect="non-scaling-stroke">% </text>
		</g>
		<g>
			<text class="st0_1626854479379 st5_1626854479379 st14_1626854479379" transform="matrix(1 0 0 1 109.7524 66.7925)" vector-effect="non-scaling-stroke">Up To </text>
		</g>
		<g>
			<text class="st0_1626854479379 st5_1626854479379 st14_1626854479379" transform="matrix(1 0 0 1 140.7319 86.4009)" vector-effect="non-scaling-stroke">off </text>
		</g>
	</g>
</g></g></svg>