<svg version="1.2" xmlns="http://www.w3.org/2000/svg" xmlns:xlink="http://www.w3.org/1999/xlink" overflow="visible" preserveAspectRatio="none" viewBox="0 0 204.1999969482422 202.10000610351562" xml:space="preserve" y="0px" x="0px" id="Layer_1_1626854665324" width="321" height="317"><g transform="translate(1, 1)"><style type="text/css">
	.st0_1626854665324{fill:#FFFFFF;}
	.st1_1626854665324{fill:#F04D23;}
	.st2_1626854665324{fill:#25336D;}
	.st3_1626854665324{font-family:'Montserrat-Medium';}
	.st4_1626854665324{font-size:4.3875px;}
	.st5_1626854665324{font-family:'Roboto-Bold';}
	.st6_1626854665324{font-size:45.2953px;}
	.st7_1626854665324{font-size:7.8959px;}
	.st8_1626854665324{font-size:13.321px;}
	.st9_1626854665324{fill:none;stroke:#010101;stroke-miterlimit:10;}
	.st10_1626854665324{font-family:'Montserrat-Bold';}
	.st11_1626854665324{fill:none;stroke:#F04D23;stroke-miterlimit:10;}
	.st12_1626854665324{fill:none;stroke:#67308F;stroke-miterlimit:10;}
</style><g>
	<rect height="200.1" width="200.1" class="st0_1626854665324" x="1.1" vector-effect="non-scaling-stroke"/>
	<polygon points="26.2,175 26.2,46.1 20.8,46.1 20.8,180.3 152.2,180.3 152.2,175" class="st1_1626854665324" vector-effect="non-scaling-stroke"/>
	<g>
		<text class="st2_1626854665324 st3_1626854665324 st4_1626854665324" transform="matrix(0 -1 1 0 190.7012 125.6851)" vector-effect="non-scaling-stroke">www.yourwebsite.com</text>
	</g>
	<g>
		<text class="st2_1626854665324 st3_1626854665324 st4_1626854665324" transform="matrix(0 -1 1 0 14.0791 125.6841)" vector-effect="non-scaling-stroke">www.yourwebsite.com</text>
	</g>
	<g>
		<text class="st1_1626854665324 st5_1626854665324 st6_1626854665324" transform="matrix(1 0 0 1 46.9375 95.2319)" vector-effect="non-scaling-stroke">SALE</text>
	</g>
	<g>
		<text class="st2_1626854665324 st5_1626854665324 st7_1626854665324" transform="matrix(1 0 0 1 73.3438 152.9175)" vector-effect="non-scaling-stroke">UP TO 50% OFF</text>
	</g>
	<g>
		<text class="st2_1626854665324 st5_1626854665324 st8_1626854665324" transform="matrix(1 0 0 1 48.544 117.9595)" vector-effect="non-scaling-stroke">LIMITED EDITION</text>
	</g>
	<polyline points="72.3,25.1 176,25.1 176,175 26.2,175 26.2,46.1" class="st9_1626854665324" vector-effect="non-scaling-stroke"/>
	<g>
		<text class="st1_1626854665324 st3_1626854665324 st4_1626854665324" transform="matrix(1 0 0 1 76.0762 14.0396)" vector-effect="non-scaling-stroke">22 - 26 December 2019</text>
	</g>
	<g>
		<text class="st2_1626854665324 st10_1626854665324 st4_1626854665324" transform="matrix(1 0 0 1 87.6768 188.5991)" vector-effect="non-scaling-stroke">SHOP NOW</text>
	</g>
	<rect height="25.6" width="149.9" class="st9_1626854665324" y="101" x="26.2" vector-effect="non-scaling-stroke"/>
	<g>
		<g>
			<line y2="37.3" x2="201.1" y1="37.3" x1="157.5" class="st11_1626854665324" vector-effect="non-scaling-stroke"/>
			<line y2="41" x2="201.1" y1="41" x1="157.5" class="st11_1626854665324" vector-effect="non-scaling-stroke"/>
			<line y2="44.7" x2="201.1" y1="44.7" x1="157.5" class="st11_1626854665324" vector-effect="non-scaling-stroke"/>
			<line y2="48.4" x2="201.1" y1="48.4" x1="157.5" class="st11_1626854665324" vector-effect="non-scaling-stroke"/>
			<line y2="52.1" x2="201.1" y1="52.1" x1="157.5" class="st11_1626854665324" vector-effect="non-scaling-stroke"/>
		</g>
	</g>
	<g>
		<g>
			<g>
				<g>
					<g>
						<circle r="1.6" cy="134.9" cx="186.8" class="st1_1626854665324" vector-effect="non-scaling-stroke"/>
						<circle r="1.6" cy="142.2" cx="186.8" class="st1_1626854665324" vector-effect="non-scaling-stroke"/>
						<circle r="1.6" cy="149.6" cx="186.8" class="st1_1626854665324" vector-effect="non-scaling-stroke"/>
						<circle r="1.6" cy="156.9" cx="186.8" class="st1_1626854665324" vector-effect="non-scaling-stroke"/>
						<circle r="1.6" cy="164.2" cx="186.8" class="st1_1626854665324" vector-effect="non-scaling-stroke"/>
						<circle r="1.6" cy="171.5" cx="186.8" class="st1_1626854665324" vector-effect="non-scaling-stroke"/>
						<circle r="1.6" cy="178.9" cx="186.8" class="st1_1626854665324" vector-effect="non-scaling-stroke"/>
					</g>
					<g>
						<circle r="1.6" cy="134.9" cx="179.6" class="st1_1626854665324" vector-effect="non-scaling-stroke"/>
						<circle r="1.6" cy="142.2" cx="179.6" class="st1_1626854665324" vector-effect="non-scaling-stroke"/>
						<circle r="1.6" cy="149.6" cx="179.6" class="st1_1626854665324" vector-effect="non-scaling-stroke"/>
						<circle r="1.6" cy="156.9" cx="179.6" class="st1_1626854665324" vector-effect="non-scaling-stroke"/>
						<circle r="1.6" cy="164.2" cx="179.6" class="st1_1626854665324" vector-effect="non-scaling-stroke"/>
						<circle r="1.6" cy="171.5" cx="179.6" class="st1_1626854665324" vector-effect="non-scaling-stroke"/>
						<circle r="1.6" cy="178.9" cx="179.6" class="st1_1626854665324" vector-effect="non-scaling-stroke"/>
					</g>
					<g>
						<circle r="1.6" cy="134.9" cx="172.4" class="st1_1626854665324" vector-effect="non-scaling-stroke"/>
						<circle r="1.6" cy="142.2" cx="172.4" class="st1_1626854665324" vector-effect="non-scaling-stroke"/>
						<circle r="1.6" cy="149.6" cx="172.4" class="st1_1626854665324" vector-effect="non-scaling-stroke"/>
						<circle r="1.6" cy="156.9" cx="172.4" class="st1_1626854665324" vector-effect="non-scaling-stroke"/>
						<circle r="1.6" cy="164.2" cx="172.4" class="st1_1626854665324" vector-effect="non-scaling-stroke"/>
						<circle r="1.6" cy="171.5" cx="172.4" class="st1_1626854665324" vector-effect="non-scaling-stroke"/>
						<circle r="1.6" cy="178.9" cx="172.4" class="st1_1626854665324" vector-effect="non-scaling-stroke"/>
					</g>
					<g>
						<circle r="1.6" cy="134.9" cx="165.2" class="st1_1626854665324" vector-effect="non-scaling-stroke"/>
						<circle r="1.6" cy="142.2" cx="165.2" class="st1_1626854665324" vector-effect="non-scaling-stroke"/>
						<circle r="1.6" cy="149.6" cx="165.2" class="st1_1626854665324" vector-effect="non-scaling-stroke"/>
						<circle r="1.6" cy="156.9" cx="165.2" class="st1_1626854665324" vector-effect="non-scaling-stroke"/>
						<circle r="1.6" cy="164.2" cx="165.2" class="st1_1626854665324" vector-effect="non-scaling-stroke"/>
						<circle r="1.6" cy="171.5" cx="165.2" class="st1_1626854665324" vector-effect="non-scaling-stroke"/>
						<circle r="1.6" cy="178.9" cx="165.2" class="st1_1626854665324" vector-effect="non-scaling-stroke"/>
					</g>
					<g>
						<circle r="1.6" cy="134.9" cx="158" class="st1_1626854665324" vector-effect="non-scaling-stroke"/>
						<circle r="1.6" cy="142.2" cx="158" class="st1_1626854665324" vector-effect="non-scaling-stroke"/>
						<circle r="1.6" cy="149.6" cx="158" class="st1_1626854665324" vector-effect="non-scaling-stroke"/>
						<circle r="1.6" cy="156.9" cx="158" class="st1_1626854665324" vector-effect="non-scaling-stroke"/>
						<circle r="1.6" cy="164.2" cx="158" class="st1_1626854665324" vector-effect="non-scaling-stroke"/>
						<circle r="1.6" cy="171.5" cx="158" class="st1_1626854665324" vector-effect="non-scaling-stroke"/>
						<circle r="1.6" cy="178.9" cx="158" class="st1_1626854665324" vector-effect="non-scaling-stroke"/>
					</g>
				</g>
			</g>
		</g>
	</g>
	<rect height="9.4" width="63.9" class="st2_1626854665324" y="138.6" x="1.1" vector-effect="non-scaling-stroke"/>
	<g>
		<polyline points="14.9,24.8 18.8,22.5 22.6,24.8 26.5,22.5 30.4,24.8 34.2,22.5 38.1,24.8 41.9,22.5 45.8,24.8     49.7,22.5 53.5,24.8 57.4,22.5 61.2,24.8 65.1,22.5 69,24.8" class="st12_1626854665324" vector-effect="non-scaling-stroke"/>
		<polyline points="14.9,28.9 18.8,26.5 22.6,28.9 26.5,26.5 30.4,28.9 34.2,26.5 38.1,28.9 41.9,26.5 45.8,28.9     49.7,26.5 53.5,28.9 57.4,26.5 61.2,28.9 65.1,26.5 69,28.9" class="st12_1626854665324" vector-effect="non-scaling-stroke"/>
		<polyline points="14.9,32.9 18.8,30.6 22.6,32.9 26.5,30.6 30.4,32.9 34.2,30.6 38.1,32.9 41.9,30.6 45.8,32.9     49.7,30.6 53.5,32.9 57.4,30.6 61.2,32.9 65.1,30.6 69,32.9" class="st12_1626854665324" vector-effect="non-scaling-stroke"/>
		<polyline points="14.9,37 18.8,34.6 22.6,37 26.5,34.6 30.4,37 34.2,34.6 38.1,37 41.9,34.6 45.8,37 49.7,34.6     53.5,37 57.4,34.6 61.2,37 65.1,34.6 69,37" class="st12_1626854665324" vector-effect="non-scaling-stroke"/>
		<polyline points="14.9,41 18.8,38.7 22.6,41 26.5,38.7 30.4,41 34.2,38.7 38.1,41 41.9,38.7 45.8,41 49.7,38.7     53.5,41 57.4,38.7 61.2,41 65.1,38.7 69,41" class="st12_1626854665324" vector-effect="non-scaling-stroke"/>
	</g>
	<rect height="30" width="30" class="st12_1626854665324" y="160" x="11.2" vector-effect="non-scaling-stroke"/>
	<rect height="30" width="30" class="st11_1626854665324" y="154" x="17.1" vector-effect="non-scaling-stroke"/>
	<rect height="9.2" width="43.6" class="st1_1626854665324" y="0.4" x="157.5" vector-effect="non-scaling-stroke"/>
	
		<rect height="9.2" width="43.6" class="st2_1626854665324" transform="matrix(6.123234e-17 -1 1 6.123234e-17 -16.739 28.075)" y="17.8" x="-16.2" vector-effect="non-scaling-stroke"/>
	<rect height="9.2" width="43.6" class="st2_1626854665324" y="190.9" x="157.5" vector-effect="non-scaling-stroke"/>
</g></g></svg>