<svg version="1.2" xmlns="http://www.w3.org/2000/svg" xmlns:xlink="http://www.w3.org/1999/xlink" overflow="visible" preserveAspectRatio="none" viewBox="0 0 204.1999969482422 202.10000610351562" xml:space="preserve" y="0px" x="0px" id="Layer_1_1626854818919" width="294" height="291"><g transform="translate(1, 1)"><style type="text/css">
	.st0_1626854818919{fill:#25336D;}
	.st1_1626854818919{fill:#FFFFFF;}
	.st2_1626854818919{fill:#F04D23;}
	.st3_1626854818919{font-family:'AbhayaLibre-Bold';}
	.st4_1626854818919{font-size:35.2488px;}
	.st5_1626854818919{font-family:'AlexBrush-Regular';}
	.st6_1626854818919{font-size:17.4493px;}
	.st7_1626854818919{font-family:'Montserrat-Medium';}
	.st8_1626854818919{font-size:4.3875px;}
	.st9_1626854818919{font-size:35.0206px;}
	.st10_1626854818919{font-size:12.6394px;}
</style><g>
	<rect height="200.1" width="200.1" class="st0_1626854818919" y="0" x="1.1" vector-effect="non-scaling-stroke"/>
	<path d="M70.3,200.1c-15.2,0,130.8,0,130.8,0v-62.1c-18.2-50.3-79.8-30-84.1-25.7c-4.3,4.3,32.7-1,28.7,37.3   C141.7,187.9,85.6,200.1,70.3,200.1z" class="st1_1626854818919" vector-effect="non-scaling-stroke"/>
	<rect height="9.8" width="98.5" class="st2_1626854818919" y="174.5" x="1.1" vector-effect="non-scaling-stroke"/>
	<path d="M201.1,62.3c0,0-25.5,22-54,24.9C118.6,90.1,162,41.4,165.9,28c3.9-13.4-12.9-5-29.7,3.7   c-16.8,8.7-18.5-1.3-7.1-16.1s-33.5,5-53,8.8C17.1,35.9,1.1,0,1.1,0h200.1V62.3z" class="st2_1626854818919" vector-effect="non-scaling-stroke"/>
	<text transform="matrix(1 0 0 1 18.5134 152.4028)" vector-effect="non-scaling-stroke"><tspan class="st1_1626854818919 st3_1626854818919 st4_1626854818919" y="0" x="0" vector-effect="non-scaling-stroke">Limited</tspan><tspan class="st1_1626854818919 st3_1626854818919 st4_1626854818919" y="27" x="0" vector-effect="non-scaling-stroke">Item</tspan></text>
	<g>
		<text class="st1_1626854818919 st5_1626854818919 st6_1626854818919" transform="matrix(1 0 0 1 13.8674 121.4831)" vector-effect="non-scaling-stroke">Special Sale</text>
	</g>
	<text class="st1_1626854818919 st7_1626854818919 st8_1626854818919" transform="matrix(0 -1 1 0 190.7007 183.1705)" vector-effect="non-scaling-stroke">www.yourwebsite.com</text>
	<path d="M1.1,24.4c0,0,14.3,16.7,50.8,17.7S103.6,26,103.6,26s13.3-8.4,5.8,20c-10.2,38.8,15,37.4,12.8,47.1   c-2.2,9.7-121-15.6-121,34.7L1.1,24.4z" class="st1_1626854818919" vector-effect="non-scaling-stroke"/>
	<g>
		<g>
			<g>
				<text class="st2_1626854818919 st3_1626854818919 st9_1626854818919" transform="matrix(1 0 0 1 18.6892 83.9064)" vector-effect="non-scaling-stroke">20</text>
			</g>
			<g>
				<text class="st2_1626854818919 st3_1626854818919 st10_1626854818919" transform="matrix(1 0 0 1 55.7039 72.6428)" vector-effect="non-scaling-stroke">% </text>
			</g>
			<g>
				<text class="st2_1626854818919 st3_1626854818919 st10_1626854818919" transform="matrix(1 0 0 1 19.7233 59.8478)" vector-effect="non-scaling-stroke">Disc </text>
			</g>
			<g>
				<text class="st2_1626854818919 st3_1626854818919 st10_1626854818919" transform="matrix(1 0 0 1 55.5925 83.4982)" vector-effect="non-scaling-stroke">off </text>
			</g>
		</g>
	</g>
</g></g></svg>