<?xml version="1.0" encoding="utf-8"?>
<!-- Generator: Adobe Illustrator 25.0.0, SVG Export Plug-In . SVG Version: 6.00 Build 0)  -->
<svg version="1.1" id="Layer_1" xmlns="http://www.w3.org/2000/svg" xmlns:xlink="http://www.w3.org/1999/xlink" x="0px" y="0px"
	 viewBox="0 0 512 120" style="enable-background:new 0 0 512 120;" xml:space="preserve">
<style type="text/css">
	.st0{fill:#FFFFFF;}
	.st1{fill-rule:evenodd;clip-rule:evenodd;fill:#FE4101;}
	
		.st2{fill-rule:evenodd;clip-rule:evenodd;fill:#FF8C00;stroke:#FFFFFF;stroke-width:3.600000e-02;stroke-linecap:round;stroke-linejoin:round;stroke-miterlimit:10;}
	.st3{fill-rule:evenodd;clip-rule:evenodd;fill:url(#SVGID_1_);}
</style>
<polygon class="st0" points="105.5,24.6 94.2,35.2 104.3,35.2 104.3,95.4 116.5,95.4 116.5,24.6 "/>
<polygon class="st0" points="127.3,24.6 127.3,35.2 148.7,35.2 148.7,95.4 160.9,95.4 160.9,35.2 182.3,35.2 182.3,24.6 "/>
<path class="st0" d="M233,73l0.5-0.2c4.8-2.1,8.4-5.2,10.7-9c2.3-3.9,3.5-8.4,3.5-13.5c0-5-1.1-9.4-3.4-13.3
	c-2.3-3.8-5.7-6.9-10.4-9.1c-4.6-2.2-10.6-3.3-17.7-3.3h-22.8v70.8h12.1V75.8h10.6c1.2,0,2.3,0,3.4-0.1l0.2,0l15.3,19.7h15.3L233,73
	z M235.3,50.2c0,4.6-1.6,8.3-4.6,11c-3.1,2.7-7.9,4-14.4,4h-10.6v-30h10.6c6.5,0,11.3,1.4,14.4,4C233.7,41.9,235.3,45.6,235.3,50.2z
	"/>
<path class="st0" d="M327.9,41.7c-3.4-5.5-8-9.9-13.7-13.2c-5.7-3.2-12.1-4.9-19-4.9c-6.9,0-13.3,1.6-19,4.9
	c-5.7,3.2-10.3,7.7-13.7,13.2c-3.4,5.5-5.1,11.6-5.1,18.3c0,6.7,1.7,12.8,5.1,18.3c3.4,5.5,8,9.9,13.7,13.2c5.7,3.3,12.1,4.9,19,4.9
	c6.9,0,13.3-1.7,19-4.9c5.7-3.3,10.3-7.7,13.7-13.2c3.4-5.5,5.1-11.6,5.1-18.3C333,53.3,331.3,47.2,327.9,41.7z M319.7,60
	c0,4.8-1.2,9-3.4,12.4c-2.3,3.4-5.3,6.1-9,7.9c-3.7,1.8-7.7,2.7-12,2.7c-4.3,0-8.4-0.9-12.1-2.7c-3.7-1.8-6.7-4.5-9-7.9
	c-2.3-3.4-3.4-7.6-3.4-12.4c0-4.8,1.2-8.9,3.4-12.4c2.3-3.4,5.3-6.1,9-7.9c3.7-1.8,7.8-2.7,12.1-2.7c4.3,0,8.3,0.9,12,2.7
	c3.7,1.8,6.7,4.5,9,7.9C318.6,51,319.7,55.2,319.7,60z"/>
<polygon class="st0" points="390.4,24.6 390.4,73.7 355.6,24.6 344.7,24.6 344.7,95.4 356.9,95.4 356.9,46.2 391.9,95.2 392.1,95.4 
	402.5,95.4 402.5,24.6 "/>
<rect x="417.7" y="24.6" class="st0" width="12.1" height="70.8"/>
<path class="st0" d="M496.9,76.6c-2.1,2-4.7,3.5-7.5,4.6c-3.1,1.2-6.5,1.8-10,1.8c-4.3,0-8.3-0.9-12-2.7c-3.7-1.8-6.7-4.5-9-7.9
	c-2.3-3.4-3.4-7.6-3.4-12.4c0-4.8,1.2-8.9,3.4-12.4c2.3-3.4,5.3-6.1,9-7.9c3.7-1.8,7.7-2.7,12-2.7c3.5,0,6.9,0.6,10,1.8
	c2.8,1.1,5.3,2.7,7.5,4.7l0.4,0.4l8.7-8.7l-0.4-0.4c-3.3-3.2-7.1-5.8-11.3-7.8c-4.5-2.1-9.5-3.2-14.9-3.2c-6.9,0-13.3,1.6-19,4.9
	c-5.7,3.2-10.3,7.7-13.6,13.2c-3.4,5.5-5.1,11.6-5.1,18.3c0,6.7,1.7,12.8,5.1,18.3c3.4,5.5,8,9.9,13.6,13.2c5.7,3.3,12.1,4.9,19,4.9
	c5.4,0,10.5-1.1,15.1-3.3c4.3-2,8-4.7,10.9-8l0.4-0.4l-8.4-8.4L496.9,76.6z"/>
<g>
	<rect x="55.3" y="40" class="st1" width="22.3" height="23.2"/>
	<polygon class="st2" points="50.8,3 6,47.8 21.9,63.6 50.7,34.6 	"/>
	<linearGradient id="SVGID_1_" gradientUnits="userSpaceOnUse" x1="39.6316" y1="16.1939" x2="39.6316" y2="38.3415">
		<stop  offset="0" style="stop-color:#FF8C00"/>
		<stop  offset="1" style="stop-color:#FFF700"/>
	</linearGradient>
	<path class="st3" d="M28.5,56.9v33.9c0,21.3,22.3,26.2,22.3,26.2V3L28.5,25.5V56.9L28.5,56.9z"/>
</g>
</svg>
