<?xml version="1.0" encoding="utf-8"?>
<!-- Generator: Adobe Illustrator 25.0.0, SVG Export Plug-In . SVG Version: 6.00 Build 0)  -->
<svg version="1.1" id="Layer_1" xmlns="http://www.w3.org/2000/svg" xmlns:xlink="http://www.w3.org/1999/xlink" x="0px" y="0px"
	 viewBox="0 0 487.3 120" style="enable-background:new 0 0 487.3 120;" xml:space="preserve">
<style type="text/css">
	.st0{fill-rule:evenodd;clip-rule:evenodd;fill:#FE4101;}
	
		.st1{fill-rule:evenodd;clip-rule:evenodd;fill:#FF8C00;stroke:#FFFFFF;stroke-width:3.600000e-02;stroke-linecap:round;stroke-linejoin:round;stroke-miterlimit:10;}
	.st2{fill-rule:evenodd;clip-rule:evenodd;fill:url(#SVGID_1_);}
</style>
<g>
	<rect x="55.3" y="40" class="st0" width="22.3" height="23.2"/>
	<polygon class="st1" points="50.8,3 6,47.8 21.9,63.6 50.7,34.6 	"/>
	<linearGradient id="SVGID_1_" gradientUnits="userSpaceOnUse" x1="39.6316" y1="16.1939" x2="39.6316" y2="38.3415">
		<stop  offset="0" style="stop-color:#FF8C00"/>
		<stop  offset="1" style="stop-color:#FFF700"/>
	</linearGradient>
	<path class="st2" d="M28.5,56.9v33.9c0,21.3,22.3,26.2,22.3,26.2V3L28.5,25.5V56.9L28.5,56.9z"/>
</g>
<g>
	<g>
		<polygon points="104.9,4.2 94.2,14.2 103.8,14.2 103.8,70.9 115.2,70.9 115.2,4.2 		"/>
		<polygon points="125.4,4.2 125.4,14.2 145.6,14.2 145.6,70.9 157,70.9 157,14.2 177.2,14.2 177.2,4.2 		"/>
		<path d="M224.9,49.8l0.5-0.2c4.5-2,7.9-4.9,10.1-8.5c2.2-3.7,3.3-7.9,3.3-12.7c0-4.7-1.1-8.9-3.2-12.5c-2.1-3.6-5.4-6.5-9.8-8.5
			c-4.4-2.1-10-3.1-16.7-3.1h-21.4v66.7h11.4V52.5h10c1.1,0,2.2,0,3.2-0.1l0.2,0L227,70.9h14.4L224.9,49.8z M227.1,28.3
			c0,4.4-1.5,7.8-4.4,10.4c-2.9,2.5-7.4,3.8-13.5,3.8h-10V14.2h10c6.1,0,10.7,1.3,13.5,3.8C225.6,20.5,227.1,24,227.1,28.3z"/>
		<path d="M314.3,20.3c-3.2-5.2-7.5-9.3-12.9-12.4c-5.4-3.1-11.4-4.6-17.9-4.6c-6.5,0-12.5,1.6-17.9,4.6c-5.4,3.1-9.7,7.2-12.9,12.4
			c-3.2,5.2-4.8,10.9-4.8,17.2c0,6.3,1.6,12.1,4.8,17.2c3.2,5.2,7.5,9.3,12.9,12.4c5.4,3.1,11.4,4.6,17.9,4.6
			c6.5,0,12.5-1.6,17.9-4.6c5.4-3.1,9.7-7.3,12.9-12.4c3.2-5.2,4.8-10.9,4.8-17.2C319.1,31.3,317.5,25.5,314.3,20.3z M306.6,37.5
			c0,4.5-1.1,8.5-3.2,11.7c-2.1,3.2-5,5.7-8.5,7.5c-3.5,1.7-7.3,2.6-11.3,2.6c-4.1,0-7.9-0.9-11.4-2.6c-3.5-1.7-6.3-4.2-8.5-7.5
			c-2.1-3.2-3.2-7.2-3.2-11.7c0-4.5,1.1-8.4,3.2-11.7c2.1-3.2,5-5.8,8.5-7.5c3.5-1.7,7.3-2.6,11.4-2.6c4,0,7.9,0.9,11.3,2.6
			c3.5,1.7,6.3,4.2,8.5,7.5C305.5,29.1,306.6,33,306.6,37.5z"/>
		<polygon points="373.2,4.2 373.2,50.4 340.4,4.2 330.2,4.2 330.2,70.9 341.6,70.9 341.6,24.6 374.6,70.7 374.7,70.9 384.6,70.9 
			384.6,4.2 		"/>
		<rect x="398.9" y="4.2" width="11.4" height="66.7"/>
		<path d="M473.5,53.2c-2,1.9-4.4,3.3-7.1,4.3c-3,1.1-6.1,1.7-9.4,1.7c-4,0-7.8-0.9-11.3-2.6c-3.5-1.7-6.3-4.2-8.5-7.5
			c-2.1-3.2-3.2-7.2-3.2-11.7c0-4.5,1.1-8.4,3.2-11.7c2.1-3.2,5-5.8,8.5-7.5c3.5-1.7,7.3-2.6,11.3-2.6c3.3,0,6.5,0.6,9.4,1.7
			c2.7,1,5,2.5,7.1,4.4l0.4,0.4l8.2-8.2l-0.4-0.4c-3.1-3-6.7-5.5-10.6-7.4c-4.3-2-9-3-14-3c-6.5,0-12.5,1.6-17.9,4.6
			c-5.3,3.1-9.7,7.2-12.9,12.4c-3.2,5.2-4.8,10.9-4.8,17.2c0,6.3,1.6,12.1,4.8,17.2c3.2,5.2,7.5,9.3,12.9,12.4
			c5.3,3.1,11.4,4.6,17.9,4.6c5.1,0,9.9-1,14.2-3.1c4.1-1.9,7.5-4.5,10.2-7.5l0.3-0.4l-7.9-7.9L473.5,53.2z"/>
	</g>
	<g>
		<path d="M123.2,116.2h-5.5l-17-23.8v23.8h-6.5V80.8h5.7l16.9,23.8V80.8h6.4V116.2z"/>
		<path d="M157,116.2h-26.7V80.8H156v5.7h-19.4v9.2h16.1v5.7h-16.1v9.2H157V116.2z"/>
		<path d="M177.5,116.2h-6.5V86.5h-10.6v-5.7h27.6v5.7h-10.6V116.2z"/>
		<path d="M231.5,116.2h-6.5l-7.7-24.1l-7.7,24.1h-6.4l-11.3-35.4h7.2l7.3,27.2l7.3-27.2h7.2l7.3,27.2l7.3-27.2h7.2L231.5,116.2z"/>
		<path d="M263,116.7c-3.5,0-6.6-0.8-9.5-2.5c-2.9-1.6-5.1-3.8-6.8-6.6c-1.7-2.8-2.5-5.8-2.5-9.1c0-3.3,0.8-6.4,2.5-9.1
			c1.7-2.8,4-4.9,6.8-6.6c2.9-1.6,6-2.4,9.5-2.4c3.5,0,6.6,0.8,9.5,2.4c2.9,1.6,5.1,3.8,6.8,6.6c1.7,2.8,2.5,5.8,2.5,9.1
			c0,3.3-0.8,6.4-2.5,9.1c-1.7,2.8-4,4.9-6.8,6.6C269.6,115.8,266.4,116.7,263,116.7z M263,109.7c2.1,0,4-0.4,5.8-1.3
			c1.8-0.9,3.3-2.2,4.4-3.8c1.1-1.7,1.7-3.7,1.7-6c0-2.3-0.6-4.3-1.7-6s-2.6-3-4.4-3.8c-1.8-0.9-3.8-1.3-5.8-1.3
			c-2.1,0-4.1,0.4-5.9,1.3c-1.8,0.9-3.3,2.2-4.4,3.8c-1.1,1.7-1.7,3.7-1.7,6c0,2.3,0.6,4.3,1.7,6c1.1,1.7,2.6,2.9,4.4,3.8
			C258.9,109.2,260.9,109.7,263,109.7z"/>
		<path d="M316,116.2h-8.1l-7.6-9.7c-0.5,0-1.1,0-1.7,0h-5v9.7h-6.5V80.8h11.5c3.6,0,6.5,0.6,8.8,1.7c2.3,1.1,4.1,2.6,5.2,4.6
			c1.1,1.9,1.7,4.2,1.7,6.7c0,2.6-0.6,4.8-1.8,6.8c-1.2,2-3,3.5-5.4,4.5L316,116.2z M298.6,100.8c3.2,0,5.5-0.6,7-1.9s2.2-3,2.2-5.3
			c0-2.2-0.7-4-2.2-5.2s-3.8-1.9-7-1.9h-5v14.4H298.6z"/>
		<path d="M350.5,116.2h-7.2l-12.2-14.6l-3.7,4.4v10.2H321V80.8h6.5V97l13.5-16.2h7.5l-13.7,16.5L350.5,116.2z"/>
	</g>
</g>
</svg>
