<svg version="1.2" xmlns="http://www.w3.org/2000/svg" xmlns:xlink="http://www.w3.org/1999/xlink" overflow="visible" preserveAspectRatio="none" viewBox="0 0 1440 240" width="1440" height="240"><g transform="translate(0, 0)"><defs><path id="path-1626841449009271692" d="M0 18 C0 18 1440 -75 1440 -75 C1440 -75 1440.000000000001 165.00000000000003 1440.000000000001 165.00000000000003 C1440.000000000001 165.00000000000003 0 165.00000000000003 0 165.00000000000003 C0 165.00000000000003 0 18 0 18 Z" vector-effect="non-scaling-stroke"/><linearGradient id="gradient-1626841449169272459" x1="50%" y1="100%" x2="50%" y2="0%" vector-effect="non-scaling-stroke"><stop offset="0%" stop-color="rgb(254,65,1)" stop-opacity="1" vector-effect="non-scaling-stroke"/><stop offset="100%" stop-color="rgb(255,181,0)" stop-opacity="1" vector-effect="non-scaling-stroke"/></linearGradient></defs><g transform="translate(0, 75)"><path d="M0 18 C0 18 1440 -75 1440 -75 C1440 -75 1440.000000000001 165.00000000000003 1440.000000000001 165.00000000000003 C1440.000000000001 165.00000000000003 0 165.00000000000003 0 165.00000000000003 C0 165.00000000000003 0 18 0 18 Z" style="stroke: rgb(140, 140, 140); stroke-width: 0; stroke-linecap: butt; stroke-linejoin: miter; fill: url(&quot;#gradient-1626841449169272459&quot;);" vector-effect="non-scaling-stroke"/></g></g></svg>