<svg version="1.2" xmlns="http://www.w3.org/2000/svg" xmlns:xlink="http://www.w3.org/1999/xlink" overflow="visible" preserveAspectRatio="none" viewBox="0 0 487.5 219.10000610351562" xml:space="preserve" y="0px" x="0px" id="Layer_1_1626640778283" width="1440" height="644"><g transform="translate(1, 1)"><style type="text/css">
	.st0_1626640778283{fill:#DEDEDE;}
</style><g>
	<g>
		<g>
			<polygon points="198.9,53 147.5,53 125.9,31.3 87.7,31.3 57.7,1.3 58,1.1 87.8,31 126,31 147.6,52.6 198.9,52.6" class="st0_1626640778283" vector-effect="non-scaling-stroke"/>
		</g>
		<g>
			<path d="M198.8,51.5c0.7,0,1.3,0.6,1.3,1.3c0,0.7-0.6,1.3-1.3,1.3c-0.7,0-1.3-0.6-1.3-1.3     C197.5,52.1,198.1,51.5,198.8,51.5z" class="st0_1626640778283" vector-effect="non-scaling-stroke"/>
		</g>
		<g>
			<path d="M58.8,0.4c-0.5-0.5-1.3-0.5-1.8,0c-0.5,0.5-0.5,1.3,0,1.8c0.5,0.5,1.3,0.5,1.8,0C59.3,1.7,59.3,0.9,58.8,0.4     z" class="st0_1626640778283" vector-effect="non-scaling-stroke"/>
		</g>
	</g>
	<g>
		<g>
			<polygon points="40.2,215.9 5.5,215.9 5.5,215.6 40,215.6 59.1,196.5 97.3,196.5 119,174.8 171.5,174.8 190.8,155.5      191.1,155.7 171.6,175.2 119.1,175.2 97.5,196.8 59.3,196.8" class="st0_1626640778283" vector-effect="non-scaling-stroke"/>
		</g>
		<g>
			<path d="M190,154.8c0.5-0.5,1.3-0.5,1.8,0c0.5,0.5,0.5,1.3,0,1.8c-0.5,0.5-1.3,0.5-1.8,0     C189.5,156.1,189.5,155.3,190,154.8z" class="st0_1626640778283" vector-effect="non-scaling-stroke"/>
		</g>
		<g>
			<circle r="1.3" cy="215.8" cx="5.5" class="st0_1626640778283" vector-effect="non-scaling-stroke"/>
		</g>
	</g>
	<g>
		<g>
			<polygon points="214.6,78.3 197.1,60.8 137,60.8 119,42.8 94.8,42.8 85.2,52.5 11.9,52.5 11.9,52.2 85,52.2      94.7,42.5 119.1,42.5 137.1,60.5 197.3,60.5 214.8,78.1" class="st0_1626640778283" vector-effect="non-scaling-stroke"/>
		</g>
		<g>
			<circle r="1.3" cy="78.1" cx="214.7" class="st0_1626640778283" vector-effect="non-scaling-stroke"/>
		</g>
		<g>
			<circle r="1.3" cy="52.3" cx="12" class="st0_1626640778283" vector-effect="non-scaling-stroke"/>
		</g>
	</g>
	<g>
		<g>
			<polygon points="166.8,170.5 146.4,170.5 131.4,155.5 101.9,155.5 87.3,140.8 43.4,140.8 43.4,140.5 87.4,140.5      102.1,155.1 131.5,155.1 146.6,170.2 166.6,170.2 187.3,149.5 187.5,149.7" class="st0_1626640778283" vector-effect="non-scaling-stroke"/>
		</g>
		<g>
			<path d="M186.4,148.8c0.5-0.5,1.3-0.5,1.8,0c0.5,0.5,0.5,1.3,0,1.8c-0.5,0.5-1.3,0.5-1.8,0     C185.9,150.1,185.9,149.3,186.4,148.8z" class="st0_1626640778283" vector-effect="non-scaling-stroke"/>
		</g>
		<g>
			<circle r="1.3" cy="140.6" cx="43.4" class="st0_1626640778283" vector-effect="non-scaling-stroke"/>
		</g>
	</g>
	<g>
		<g>
			<polygon points="212.4,86.5 195.3,69.4 138.1,69.4 118.9,50.3 101.4,50.3 87.4,64.3 32.3,64.3 32.3,64 87.2,64      101.3,50 119.1,50 138.2,69.1 195.5,69.1 212.7,86.3" class="st0_1626640778283" vector-effect="non-scaling-stroke"/>
		</g>
		<g>
			<path d="M32.3,65.4c-0.7,0-1.3-0.6-1.3-1.3c0-0.7,0.6-1.3,1.3-1.3c0.7,0,1.3,0.6,1.3,1.3     C33.6,64.9,33,65.4,32.3,65.4z" class="st0_1626640778283" vector-effect="non-scaling-stroke"/>
		</g>
		<g>
			<path d="M211.6,87.3c0.5,0.5,1.3,0.5,1.8,0c0.5-0.5,0.5-1.3,0-1.8c-0.5-0.5-1.3-0.5-1.8,0     C211.1,86,211.1,86.8,211.6,87.3z" class="st0_1626640778283" vector-effect="non-scaling-stroke"/>
		</g>
	</g>
	<g>
		<g>
			<polygon points="164.2,153.7 139.3,153.7 110.5,124.9 51,124.9 36.7,139.3 36.4,139 50.9,124.6 110.6,124.6      139.4,153.4 164,153.4 178.2,139.3 203.7,139.3 203.7,139.6 178.3,139.6" class="st0_1626640778283" vector-effect="non-scaling-stroke"/>
		</g>
		<g>
			<path d="M203.6,138.2c0.7,0,1.3,0.6,1.3,1.3c0,0.7-0.6,1.3-1.3,1.3c-0.7,0-1.3-0.6-1.3-1.3     C202.3,138.7,202.9,138.2,203.6,138.2z" class="st0_1626640778283" vector-effect="non-scaling-stroke"/>
		</g>
		<g>
			<path d="M35.7,138.2c-0.5,0.5-0.5,1.3,0,1.8c0.5,0.5,1.3,0.5,1.8,0c0.5-0.5,0.5-1.3,0-1.8     C37,137.7,36.2,137.7,35.7,138.2z" class="st0_1626640778283" vector-effect="non-scaling-stroke"/>
		</g>
	</g>
	<g>
		<g>
			<polygon points="169.7,159.7 156,159.7 156,159.3 169.5,159.3 185.1,143.7 185.3,144" class="st0_1626640778283" vector-effect="non-scaling-stroke"/>
		</g>
		<g>
			<path d="M184.3,143c0.5-0.5,1.3-0.5,1.8,0c0.5,0.5,0.5,1.3,0,1.8c-0.5,0.5-1.3,0.5-1.8,0     C183.8,144.3,183.8,143.5,184.3,143z" class="st0_1626640778283" vector-effect="non-scaling-stroke"/>
		</g>
		<g>
			<circle r="1.3" cy="159.5" cx="156" class="st0_1626640778283" vector-effect="non-scaling-stroke"/>
		</g>
	</g>
	<g>
		<g>
			<polygon points="212.4,96.7 194.1,78.4 142.5,78.4 125.2,61.1 96.5,61.1 81.5,76 19.5,76 1.1,57.7 1.3,57.5      19.6,75.7 81.4,75.7 96.3,60.7 125.3,60.7 142.6,78 194.2,78 212.7,96.5" class="st0_1626640778283" vector-effect="non-scaling-stroke"/>
		</g>
		<g>
			<path d="M213.4,95.6c0.5,0.5,0.5,1.3,0,1.8c-0.5,0.5-1.3,0.5-1.8,0c-0.5-0.5-0.5-1.3,0-1.8     C212.1,95.1,212.9,95.1,213.4,95.6z" class="st0_1626640778283" vector-effect="non-scaling-stroke"/>
		</g>
		<g>
			<path d="M2.2,56.7c-0.5-0.5-1.3-0.5-1.8,0c-0.5,0.5-0.5,1.3,0,1.8c0.5,0.5,1.3,0.5,1.8,0C2.7,58,2.7,57.2,2.2,56.7z" class="st0_1626640778283" vector-effect="non-scaling-stroke"/>
		</g>
	</g>
	<g>
		<g>
			<polygon points="204.7,100.3 189.8,85.4 143.6,85.4 125.5,67.3 97.6,67.3 74.8,90.1 74.6,89.8 97.4,67 125.7,67      143.7,85 190,85 205,100" class="st0_1626640778283" vector-effect="non-scaling-stroke"/>
		</g>
		<g>
			<path d="M205.7,99.2c0.5,0.5,0.5,1.3,0,1.8c-0.5,0.5-1.3,0.5-1.8,0c-0.5-0.5-0.5-1.3,0-1.8     C204.4,98.7,205.2,98.7,205.7,99.2z" class="st0_1626640778283" vector-effect="non-scaling-stroke"/>
		</g>
		<g>
			<circle r="1.3" cy="89.9" cx="74.8" class="st0_1626640778283" vector-effect="non-scaling-stroke"/>
		</g>
	</g>
	<g>
		<g>
			<polygon points="154.4,145.1 137.1,145.1 104.1,112.1 16.5,112.1 16.5,111.7 104.2,111.7 137.2,144.8 154.3,144.8      166.6,132.4 200.1,132.4 214.6,117.9 214.8,118.2 200.3,132.7 166.8,132.7" class="st0_1626640778283" vector-effect="non-scaling-stroke"/>
		</g>
		<g>
			<path d="M213.8,117.2c0.5-0.5,1.3-0.5,1.8,0c0.5,0.5,0.5,1.3,0,1.8c-0.5,0.5-1.3,0.5-1.8,0     C213.3,118.5,213.3,117.7,213.8,117.2z" class="st0_1626640778283" vector-effect="non-scaling-stroke"/>
		</g>
		<g>
			<path d="M16.5,110.6c-0.7,0-1.3,0.6-1.3,1.3s0.6,1.3,1.3,1.3c0.7,0,1.3-0.6,1.3-1.3S17.2,110.6,16.5,110.6z" class="st0_1626640778283" vector-effect="non-scaling-stroke"/>
		</g>
	</g>
	<g>
		<g>
			<polygon points="137.9,105.6 126.2,105.6 126.2,105.2 137.8,105.2 148.5,94.5 188.6,94.5 188.6,94.8 148.7,94.8" class="st0_1626640778283" vector-effect="non-scaling-stroke"/>
		</g>
		<g>
			<path d="M188.5,93.4c0.7,0,1.3,0.6,1.3,1.3c0,0.7-0.6,1.3-1.3,1.3c-0.7,0-1.3-0.6-1.3-1.3     C187.2,94,187.8,93.4,188.5,93.4z" class="st0_1626640778283" vector-effect="non-scaling-stroke"/>
		</g>
		<g>
			<circle r="1.3" cy="105.4" cx="126.2" class="st0_1626640778283" vector-effect="non-scaling-stroke"/>
		</g>
	</g>
	<g>
		<g>
			<polygon points="137.2,95 120.8,78.6 97.1,78.6 97.1,78.3 120.9,78.3 137.4,94.8" class="st0_1626640778283" vector-effect="non-scaling-stroke"/>
		</g>
		<g>
			<path d="M138.1,94c0.5,0.5,0.5,1.3,0,1.8c-0.5,0.5-1.3,0.5-1.8,0c-0.5-0.5-0.5-1.3,0-1.8     C136.8,93.5,137.7,93.5,138.1,94z" class="st0_1626640778283" vector-effect="non-scaling-stroke"/>
		</g>
		<g>
			<path d="M97.1,77.2c-0.7,0-1.3,0.6-1.3,1.3c0,0.7,0.6,1.3,1.3,1.3s1.3-0.6,1.3-1.3C98.4,77.8,97.8,77.2,97.1,77.2z" class="st0_1626640778283" vector-effect="non-scaling-stroke"/>
		</g>
	</g>
	<g>
		<g>
			<polygon points="126.2,96.7 114.7,85.2 93.8,85.2 93.8,84.9 114.9,84.9 126.4,96.5" class="st0_1626640778283" vector-effect="non-scaling-stroke"/>
		</g>
		<g>
			<circle r="1.3" cy="96.5" cx="126.3" class="st0_1626640778283" vector-effect="non-scaling-stroke"/>
		</g>
		<g>
			<circle r="1.3" cy="85.1" cx="93.8" class="st0_1626640778283" vector-effect="non-scaling-stroke"/>
		</g>
	</g>
	<g>
		<g>
			<rect height="0.3" width="14.6" class="st0_1626640778283" y="144.6" x="17.6" vector-effect="non-scaling-stroke"/>
		</g>
		<g>
			<circle r="1.3" cy="144.8" cx="32.1" class="st0_1626640778283" vector-effect="non-scaling-stroke"/>
		</g>
		<g>
			<path d="M17.6,143.5c-0.7,0-1.3,0.6-1.3,1.3c0,0.7,0.6,1.3,1.3,1.3c0.7,0,1.3-0.6,1.3-1.3     C18.9,144.1,18.3,143.5,17.6,143.5z" class="st0_1626640778283" vector-effect="non-scaling-stroke"/>
		</g>
	</g>
	<g>
		<g>
			<polygon points="118.1,146.8 103.3,132.1 56,132.1 56,131.7 103.5,131.7 118.3,146.6" class="st0_1626640778283" vector-effect="non-scaling-stroke"/>
		</g>
		<g>
			<path d="M119,145.8c0.5,0.5,0.5,1.3,0,1.8c-0.5,0.5-1.3,0.5-1.8,0c-0.5-0.5-0.5-1.3,0-1.8     C117.7,145.3,118.5,145.3,119,145.8z" class="st0_1626640778283" vector-effect="non-scaling-stroke"/>
		</g>
		<g>
			<circle r="1.3" cy="131.9" cx="56.1" class="st0_1626640778283" vector-effect="non-scaling-stroke"/>
		</g>
	</g>
	<g>
		<g>
			<polygon points="40.3,207.3 8.2,207.3 8.2,207 40.2,207 64.6,182.5 92.6,182.5 108.5,166.6 138.7,166.6 138.7,166.9      108.7,166.9 92.7,182.9 64.7,182.9" class="st0_1626640778283" vector-effect="non-scaling-stroke"/>
		</g>
		<g>
			<circle r="1.3" cy="166.8" cx="138.6" class="st0_1626640778283" vector-effect="non-scaling-stroke"/>
		</g>
		<g>
			<path d="M8.3,205.9c-0.7,0-1.3,0.6-1.3,1.3c0,0.7,0.6,1.3,1.3,1.3c0.7,0,1.3-0.6,1.3-1.3     C9.5,206.4,9,205.9,8.3,205.9z" class="st0_1626640778283" vector-effect="non-scaling-stroke"/>
		</g>
	</g>
	<g>
		<g>
			<polygon points="6.9,169.9 6.6,169.6 25.6,150.7 82.3,150.7 93.3,161.7 127.7,161.7 127.7,162 93.2,162 82.2,151      25.7,151" class="st0_1626640778283" vector-effect="non-scaling-stroke"/>
		</g>
		<g>
			<circle r="1.3" cy="161.8" cx="127.7" class="st0_1626640778283" vector-effect="non-scaling-stroke"/>
		</g>
		<g>
			<path d="M5.9,168.8c-0.5,0.5-0.5,1.3,0,1.8c0.5,0.5,1.3,0.5,1.8,0c0.5-0.5,0.5-1.3,0-1.8     C7.2,168.3,6.4,168.3,5.9,168.8z" class="st0_1626640778283" vector-effect="non-scaling-stroke"/>
		</g>
	</g>
	<g>
		<g>
			<polygon points="38.4,190.6 11.9,190.6 2.5,181.2 2.8,181 12,190.2 38.2,190.2 58,170.4 90.4,170.4 90.4,170.8      58.2,170.8" class="st0_1626640778283" vector-effect="non-scaling-stroke"/>
		</g>
		<g>
			<path d="M90.3,169.3c0.7,0,1.3,0.6,1.3,1.3c0,0.7-0.6,1.3-1.3,1.3c-0.7,0-1.3-0.6-1.3-1.3     C89,169.9,89.6,169.3,90.3,169.3z" class="st0_1626640778283" vector-effect="non-scaling-stroke"/>
		</g>
		<g>
			<path d="M3.6,180.2c-0.5-0.5-1.3-0.5-1.8,0c-0.5,0.5-0.5,1.3,0,1.8c0.5,0.5,1.3,0.5,1.8,0     C4.1,181.5,4.1,180.7,3.6,180.2z" class="st0_1626640778283" vector-effect="non-scaling-stroke"/>
		</g>
	</g>
	<g>
		<g>
			<polygon points="31,177.7 17.6,177.7 17.6,177.3 30.8,177.3 45.9,162.2 79.4,162.2 79.4,162.6 46.1,162.6" class="st0_1626640778283" vector-effect="non-scaling-stroke"/>
		</g>
		<g>
			<path d="M79.3,161.1c0.7,0,1.3,0.6,1.3,1.3c0,0.7-0.6,1.3-1.3,1.3c-0.7,0-1.3-0.6-1.3-1.3     C78.1,161.7,78.6,161.1,79.3,161.1z" class="st0_1626640778283" vector-effect="non-scaling-stroke"/>
		</g>
		<g>
			<circle r="1.3" cy="177.5" cx="17.6" class="st0_1626640778283" vector-effect="non-scaling-stroke"/>
		</g>
	</g>
	<g>
		<g>
			<polygon points="3.6,145.2 3.3,144.9 27.8,120.5 92,120.5 92,120.8 27.9,120.8" class="st0_1626640778283" vector-effect="non-scaling-stroke"/>
		</g>
		<g>
			<path d="M92,119.4c0.7,0,1.3,0.6,1.3,1.3c0,0.7-0.6,1.3-1.3,1.3c-0.7,0-1.3-0.6-1.3-1.3     C90.7,119.9,91.3,119.4,92,119.4z" class="st0_1626640778283" vector-effect="non-scaling-stroke"/>
		</g>
		<g>
			<path d="M2.6,144.1c-0.5,0.5-0.5,1.3,0,1.8c0.5,0.5,1.3,0.5,1.8,0c0.5-0.5,0.5-1.3,0-1.8     C3.9,143.6,3.1,143.6,2.6,144.1z" class="st0_1626640778283" vector-effect="non-scaling-stroke"/>
		</g>
	</g>
	<g>
		<g>
			<polygon points="144.6,134.3 134.3,134.3 104.3,104.2 11,104.2 11,103.9 104.4,103.9 134.5,133.9 144.5,133.9      156.3,122.1 188.7,122.1 198.2,112.6 198.5,112.8 188.9,122.5 156.5,122.5" class="st0_1626640778283" vector-effect="non-scaling-stroke"/>
		</g>
		<g>
			<path d="M197.4,111.9c0.5-0.5,1.3-0.5,1.8,0c0.5,0.5,0.5,1.3,0,1.8c-0.5,0.5-1.3,0.5-1.8,0     C196.9,113.2,196.9,112.4,197.4,111.9z" class="st0_1626640778283" vector-effect="non-scaling-stroke"/>
		</g>
		<g>
			<circle r="1.3" cy="104" cx="11" class="st0_1626640778283" vector-effect="non-scaling-stroke"/>
		</g>
	</g>
	<g>
		<g>
			<polygon points="143.7,125.1 132.7,125.1 103.7,96 6,96 6,95.7 103.8,95.7 132.8,124.7 143.5,124.7 151.9,116.4      186.2,116.4 195,107.6 195.2,107.9 186.4,116.7 152.1,116.7" class="st0_1626640778283" vector-effect="non-scaling-stroke"/>
		</g>
		<g>
			<path d="M194.1,106.9c0.5-0.5,1.3-0.5,1.8,0c0.5,0.5,0.5,1.3,0,1.8c-0.5,0.5-1.3,0.5-1.8,0     C193.6,108.2,193.6,107.4,194.1,106.9z" class="st0_1626640778283" vector-effect="non-scaling-stroke"/>
		</g>
		<g>
			<path d="M6.1,94.6c-0.7,0-1.3,0.6-1.3,1.3c0,0.7,0.6,1.3,1.3,1.3s1.3-0.6,1.3-1.3C7.4,95.2,6.8,94.6,6.1,94.6z" class="st0_1626640778283" vector-effect="non-scaling-stroke"/>
		</g>
	</g>
	<g>
		<g>
			<polygon points="143.1,113.3 142.8,113.1 154.1,101.8 189.2,101.8 189.2,102.1 154.3,102.1" class="st0_1626640778283" vector-effect="non-scaling-stroke"/>
		</g>
		<g>
			<path d="M189.2,100.7c0.7,0,1.3,0.6,1.3,1.3c0,0.7-0.6,1.3-1.3,1.3c-0.7,0-1.3-0.6-1.3-1.3     C187.9,101.3,188.5,100.7,189.2,100.7z" class="st0_1626640778283" vector-effect="non-scaling-stroke"/>
		</g>
		<g>
			<circle r="1.3" cy="113.2" cx="143" class="st0_1626640778283" vector-effect="non-scaling-stroke"/>
		</g>
	</g>
	<g>
		<g>
			<polygon points="114,38.4 79.4,38.4 53,12.1 53.3,11.8 79.6,38.1 114,38.1" class="st0_1626640778283" vector-effect="non-scaling-stroke"/>
		</g>
		<g>
			<path d="M113.9,37c0.7,0,1.3,0.6,1.3,1.3c0,0.7-0.6,1.3-1.3,1.3c-0.7,0-1.3-0.6-1.3-1.3     C112.7,37.6,113.2,37,113.9,37z" class="st0_1626640778283" vector-effect="non-scaling-stroke"/>
		</g>
		<g>
			<path d="M54.1,11.1c-0.5-0.5-1.3-0.5-1.8,0c-0.5,0.5-0.5,1.3,0,1.8c0.5,0.5,1.3,0.5,1.8,0     C54.6,12.4,54.6,11.6,54.1,11.1z" class="st0_1626640778283" vector-effect="non-scaling-stroke"/>
		</g>
	</g>
	<g>
		<g>
			<polygon points="67.7,38.8 50.7,21.8 4,21.8 4,21.5 50.9,21.5 67.9,38.5" class="st0_1626640778283" vector-effect="non-scaling-stroke"/>
		</g>
		<g>
			<path d="M68.7,37.7c0.5,0.5,0.5,1.3,0,1.8c-0.5,0.5-1.3,0.5-1.8,0c-0.5-0.5-0.5-1.3,0-1.8     C67.4,37.2,68.2,37.2,68.7,37.7z" class="st0_1626640778283" vector-effect="non-scaling-stroke"/>
		</g>
		<g>
			<path d="M4,20.4c-0.7,0-1.3,0.6-1.3,1.3s0.6,1.3,1.3,1.3c0.7,0,1.3-0.6,1.3-1.3S4.7,20.4,4,20.4z" class="st0_1626640778283" vector-effect="non-scaling-stroke"/>
		</g>
	</g>
	<g>
		<g>
			<polygon points="286.6,164.1 337.9,164.1 359.6,185.8 397.8,185.8 427.7,215.7 427.5,215.9 397.6,186.1 359.5,186.1      337.8,164.4 286.6,164.4" class="st0_1626640778283" vector-effect="non-scaling-stroke"/>
		</g>
		<g>
			<path d="M286.6,165.5c-0.7,0-1.3-0.6-1.3-1.3c0-0.7,0.6-1.3,1.3-1.3s1.3,0.6,1.3,1.3     C287.9,165,287.3,165.5,286.6,165.5z" class="st0_1626640778283" vector-effect="non-scaling-stroke"/>
		</g>
		<g>
			<path d="M426.7,216.7c0.5,0.5,1.3,0.5,1.8,0c0.5-0.5,0.5-1.3,0-1.8c-0.5-0.5-1.3-0.5-1.8,0     C426.2,215.4,426.2,216.2,426.7,216.7z" class="st0_1626640778283" vector-effect="non-scaling-stroke"/>
		</g>
	</g>
	<g>
		<g>
			<polygon points="445.3,1.1 480,1.1 480,1.4 445.4,1.4 426.3,20.6 388.1,20.6 366.5,42.2 314,42.2 294.6,61.5      294.4,61.3 313.8,41.9 366.3,41.9 388,20.2 426.2,20.2" class="st0_1626640778283" vector-effect="non-scaling-stroke"/>
		</g>
		<g>
			<path d="M295.5,62.3c-0.5,0.5-1.3,0.5-1.8,0c-0.5-0.5-0.5-1.3,0-1.8c0.5-0.5,1.3-0.5,1.8,0     C296,61,296,61.8,295.5,62.3z" class="st0_1626640778283" vector-effect="non-scaling-stroke"/>
		</g>
		<g>
			<path d="M479.9,2.5c0.7,0,1.3-0.6,1.3-1.3c0-0.7-0.6-1.3-1.3-1.3c-0.7,0-1.3,0.6-1.3,1.3     C478.6,2,479.2,2.5,479.9,2.5z" class="st0_1626640778283" vector-effect="non-scaling-stroke"/>
		</g>
	</g>
	<g>
		<g>
			<polygon points="270.8,138.7 288.3,156.2 348.5,156.2 366.5,174.2 390.6,174.2 400.3,164.5 473.5,164.5 473.5,164.9      400.4,164.9 390.8,174.6 366.3,174.6 348.3,156.6 288.2,156.6 270.6,139" class="st0_1626640778283" vector-effect="non-scaling-stroke"/>
		</g>
		<g>
			<path d="M269.9,139.8c-0.5-0.5-0.5-1.3,0-1.8c0.5-0.5,1.3-0.5,1.8,0c0.5,0.5,0.5,1.3,0,1.8     C271.2,140.3,270.4,140.3,269.9,139.8z" class="st0_1626640778283" vector-effect="non-scaling-stroke"/>
		</g>
		<g>
			<path d="M473.4,166c0.7,0,1.3-0.6,1.3-1.3c0-0.7-0.6-1.3-1.3-1.3c-0.7,0-1.3,0.6-1.3,1.3     C472.2,165.4,472.7,166,473.4,166z" class="st0_1626640778283" vector-effect="non-scaling-stroke"/>
		</g>
	</g>
	<g>
		<g>
			<polygon points="318.7,46.6 339,46.6 354.1,61.6 383.5,61.6 398.2,76.2 442.1,76.2 442.1,76.6 398,76.6 383.4,61.9      353.9,61.9 338.9,46.9 318.8,46.9 298.2,67.5 297.9,67.3" class="st0_1626640778283" vector-effect="non-scaling-stroke"/>
		</g>
		<g>
			<path d="M299,68.3c-0.5,0.5-1.3,0.5-1.8,0c-0.5-0.5-0.5-1.3,0-1.8c0.5-0.5,1.3-0.5,1.8,0     C299.5,67,299.5,67.8,299,68.3z" class="st0_1626640778283" vector-effect="non-scaling-stroke"/>
		</g>
		<g>
			<circle r="1.3" cy="76.4" cx="442" class="st0_1626640778283" vector-effect="non-scaling-stroke"/>
		</g>
	</g>
	<g>
		<g>
			<polygon points="273,130.5 290.1,147.6 347.4,147.6 366.5,166.8 384,166.8 398.1,152.7 453.2,152.7 453.2,153.1      398.2,153.1 384.2,167.1 366.4,167.1 347.2,147.9 290,147.9 272.8,130.8" class="st0_1626640778283" vector-effect="non-scaling-stroke"/>
		</g>
		<g>
			<path d="M453.1,151.6c0.7,0,1.3,0.6,1.3,1.3c0,0.7-0.6,1.3-1.3,1.3c-0.7,0-1.3-0.6-1.3-1.3     C451.9,152.2,452.4,151.6,453.1,151.6z" class="st0_1626640778283" vector-effect="non-scaling-stroke"/>
		</g>
		<g>
			<path d="M273.9,129.8c-0.5-0.5-1.3-0.5-1.8,0c-0.5,0.5-0.5,1.3,0,1.8c0.5,0.5,1.3,0.5,1.8,0     C274.4,131.1,274.4,130.3,273.9,129.8z" class="st0_1626640778283" vector-effect="non-scaling-stroke"/>
		</g>
	</g>
	<g>
		<g>
			<polygon points="321.3,63.3 346.2,63.3 375,92.1 434.4,92.1 448.8,77.8 449,78 434.6,92.5 374.8,92.5 346,63.6      321.4,63.6 307.3,77.8 281.8,77.8 281.8,77.4 307.1,77.4" class="st0_1626640778283" vector-effect="non-scaling-stroke"/>
		</g>
		<g>
			<path d="M281.8,78.9c-0.7,0-1.3-0.6-1.3-1.3c0-0.7,0.6-1.3,1.3-1.3c0.7,0,1.3,0.6,1.3,1.3     C283.1,78.3,282.6,78.9,281.8,78.9z" class="st0_1626640778283" vector-effect="non-scaling-stroke"/>
		</g>
		<g>
			<path d="M449.8,78.9c0.5-0.5,0.5-1.3,0-1.8c-0.5-0.5-1.3-0.5-1.8,0c-0.5,0.5-0.5,1.3,0,1.8     C448.5,79.3,449.3,79.3,449.8,78.9z" class="st0_1626640778283" vector-effect="non-scaling-stroke"/>
		</g>
	</g>
	<g>
		<g>
			<polygon points="315.8,57.4 329.5,57.4 329.5,57.7 315.9,57.7 300.4,73.3 300.1,73.1" class="st0_1626640778283" vector-effect="non-scaling-stroke"/>
		</g>
		<g>
			<path d="M301.2,74c-0.5,0.5-1.3,0.5-1.8,0c-0.5-0.5-0.5-1.3,0-1.8c0.5-0.5,1.3-0.5,1.8,0     C301.7,72.7,301.7,73.5,301.2,74z" class="st0_1626640778283" vector-effect="non-scaling-stroke"/>
		</g>
		<g>
			<path d="M329.4,58.8c0.7,0,1.3-0.6,1.3-1.3c0-0.7-0.6-1.3-1.3-1.3c-0.7,0-1.3,0.6-1.3,1.3     C328.1,58.3,328.7,58.8,329.4,58.8z" class="st0_1626640778283" vector-effect="non-scaling-stroke"/>
		</g>
	</g>
	<g>
		<g>
			<polygon points="273,120.4 291.4,138.7 343,138.7 360.3,156 389,156 403.9,141 466,141 484.3,159.4 484.1,159.6      465.9,141.3 404.1,141.3 389.1,156.3 360.1,156.3 342.8,139 291.2,139 272.8,120.6" class="st0_1626640778283" vector-effect="non-scaling-stroke"/>
		</g>
		<g>
			<path d="M272.1,121.4c-0.5-0.5-0.5-1.3,0-1.8c0.5-0.5,1.3-0.5,1.8,0c0.5,0.5,0.5,1.3,0,1.8     C273.4,121.9,272.6,121.9,272.1,121.4z" class="st0_1626640778283" vector-effect="non-scaling-stroke"/>
		</g>
		<g>
			<path d="M483.3,160.3c0.5,0.5,1.3,0.5,1.8,0c0.5-0.5,0.5-1.3,0-1.8c-0.5-0.5-1.3-0.5-1.8,0     C482.8,159,482.8,159.8,483.3,160.3z" class="st0_1626640778283" vector-effect="non-scaling-stroke"/>
		</g>
	</g>
	<g>
		<g>
			<polygon points="280.7,116.8 295.6,131.7 341.9,131.7 359.9,149.7 387.9,149.7 410.6,127 410.9,127.2 388,150.1      359.8,150.1 341.7,132 295.5,132 280.5,117" class="st0_1626640778283" vector-effect="non-scaling-stroke"/>
		</g>
		<g>
			<path d="M279.8,117.9c-0.5-0.5-0.5-1.3,0-1.8c0.5-0.5,1.3-0.5,1.8,0c0.5,0.5,0.5,1.3,0,1.8     C281.1,118.3,280.3,118.3,279.8,117.9z" class="st0_1626640778283" vector-effect="non-scaling-stroke"/>
		</g>
		<g>
			<path d="M411.6,128c0.5-0.5,0.5-1.3,0-1.8c-0.5-0.5-1.3-0.5-1.8,0c-0.5,0.5-0.5,1.3,0,1.8     C410.3,128.5,411.1,128.5,411.6,128z" class="st0_1626640778283" vector-effect="non-scaling-stroke"/>
		</g>
	</g>
	<g>
		<g>
			<polygon points="331,72 348.4,72 381.4,105 469,105 469,105.3 381.2,105.3 348.2,72.3 331.2,72.3 318.8,84.6      285.3,84.6 270.8,99.1 270.6,98.9 285.2,84.3 318.7,84.3" class="st0_1626640778283" vector-effect="non-scaling-stroke"/>
		</g>
		<g>
			<path d="M271.7,99.9c-0.5,0.5-1.3,0.5-1.8,0c-0.5-0.5-0.5-1.3,0-1.8s1.3-0.5,1.8,0C272.2,98.6,272.2,99.4,271.7,99.9     z" class="st0_1626640778283" vector-effect="non-scaling-stroke"/>
		</g>
		<g>
			<path d="M468.9,106.4c0.7,0,1.3-0.6,1.3-1.3c0-0.7-0.6-1.3-1.3-1.3c-0.7,0-1.3,0.6-1.3,1.3     C467.7,105.8,468.2,106.4,468.9,106.4z" class="st0_1626640778283" vector-effect="non-scaling-stroke"/>
		</g>
	</g>
	<g>
		<g>
			<polygon points="347.5,111.5 359.3,111.5 359.3,111.8 347.6,111.8 336.9,122.5 296.9,122.5 296.9,122.2 336.8,122.2" class="st0_1626640778283" vector-effect="non-scaling-stroke"/>
		</g>
		<g>
			<circle r="1.3" cy="122.4" cx="297" class="st0_1626640778283" vector-effect="non-scaling-stroke"/>
		</g>
		<g>
			<circle r="1.3" cy="111.7" cx="359.2" class="st0_1626640778283" vector-effect="non-scaling-stroke"/>
		</g>
	</g>
	<g>
		<g>
			<polygon points="348.3,122 364.7,138.4 388.4,138.4 388.4,138.7 364.5,138.7 348,122.2" class="st0_1626640778283" vector-effect="non-scaling-stroke"/>
		</g>
		<g>
			<path d="M347.3,123.1c-0.5-0.5-0.5-1.3,0-1.8c0.5-0.5,1.3-0.5,1.8,0c0.5,0.5,0.5,1.3,0,1.8     C348.6,123.6,347.8,123.6,347.3,123.1z" class="st0_1626640778283" vector-effect="non-scaling-stroke"/>
		</g>
		<g>
			<path d="M388.3,139.8c0.7,0,1.3-0.6,1.3-1.3c0-0.7-0.6-1.3-1.3-1.3c-0.7,0-1.3,0.6-1.3,1.3     C387,139.3,387.6,139.8,388.3,139.8z" class="st0_1626640778283" vector-effect="non-scaling-stroke"/>
		</g>
	</g>
	<g>
		<g>
			<polygon points="359.3,120.4 370.7,131.8 391.7,131.8 391.7,132.2 370.6,132.2 359,120.6" class="st0_1626640778283" vector-effect="non-scaling-stroke"/>
		</g>
		<g>
			<circle r="1.3" cy="120.5" cx="359.2" class="st0_1626640778283" vector-effect="non-scaling-stroke"/>
		</g>
		<g>
			<path d="M391.6,133.3c0.7,0,1.3-0.6,1.3-1.3c0-0.7-0.6-1.3-1.3-1.3c-0.7,0-1.3,0.6-1.3,1.3     C390.3,132.7,390.9,133.3,391.6,133.3z" class="st0_1626640778283" vector-effect="non-scaling-stroke"/>
		</g>
	</g>
	<g>
		<g>
			<rect height="0.3" width="14.6" class="st0_1626640778283" y="72.1" x="453.3" vector-effect="non-scaling-stroke"/>
		</g>
		<g>
			<path d="M453.4,73.5c-0.7,0-1.3-0.6-1.3-1.3c0-0.7,0.6-1.3,1.3-1.3c0.7,0,1.3,0.6,1.3,1.3     C454.6,72.9,454.1,73.5,453.4,73.5z" class="st0_1626640778283" vector-effect="non-scaling-stroke"/>
		</g>
		<g>
			<path d="M467.8,73.5c0.7,0,1.3-0.6,1.3-1.3c0-0.7-0.6-1.3-1.3-1.3c-0.7,0-1.3,0.6-1.3,1.3     C466.6,72.9,467.1,73.5,467.8,73.5z" class="st0_1626640778283" vector-effect="non-scaling-stroke"/>
		</g>
	</g>
	<g>
		<g>
			<polygon points="367.4,70.2 382.1,85 429.5,85 429.5,85.3 382,85.3 367.1,70.5" class="st0_1626640778283" vector-effect="non-scaling-stroke"/>
		</g>
		<g>
			<path d="M366.4,71.3c-0.5-0.5-0.5-1.3,0-1.8c0.5-0.5,1.3-0.5,1.8,0c0.5,0.5,0.5,1.3,0,1.8     C367.7,71.8,366.9,71.8,366.4,71.3z" class="st0_1626640778283" vector-effect="non-scaling-stroke"/>
		</g>
		<g>
			<circle r="1.3" cy="85.2" cx="429.4" class="st0_1626640778283" vector-effect="non-scaling-stroke"/>
		</g>
	</g>
	<g>
		<g>
			<polygon points="445.1,9.7 477.2,9.7 477.2,10.1 445.3,10.1 420.9,34.5 392.8,34.5 376.9,50.4 346.7,50.4      346.7,50.1 376.8,50.1 392.7,34.2 420.7,34.2" class="st0_1626640778283" vector-effect="non-scaling-stroke"/>
		</g>
		<g>
			<path d="M346.8,51.5c-0.7,0-1.3-0.6-1.3-1.3s0.6-1.3,1.3-1.3c0.7,0,1.3,0.6,1.3,1.3S347.5,51.5,346.8,51.5z" class="st0_1626640778283" vector-effect="non-scaling-stroke"/>
		</g>
		<g>
			<path d="M477.2,11.2c0.7,0,1.3-0.6,1.3-1.3c0-0.7-0.6-1.3-1.3-1.3c-0.7,0-1.3,0.6-1.3,1.3     C475.9,10.6,476.5,11.2,477.2,11.2z" class="st0_1626640778283" vector-effect="non-scaling-stroke"/>
		</g>
	</g>
	<g>
		<g>
			<polygon points="478.6,47.2 478.8,47.4 459.8,66.4 403.1,66.4 392.2,55.4 357.7,55.4 357.7,55.1 392.3,55.1      403.3,66 459.7,66" class="st0_1626640778283" vector-effect="non-scaling-stroke"/>
		</g>
		<g>
			<path d="M357.8,56.5c-0.7,0-1.3-0.6-1.3-1.3c0-0.7,0.6-1.3,1.3-1.3c0.7,0,1.3,0.6,1.3,1.3     C359.1,55.9,358.5,56.5,357.8,56.5z" class="st0_1626640778283" vector-effect="non-scaling-stroke"/>
		</g>
		<g>
			<path d="M479.5,48.2c0.5-0.5,0.5-1.3,0-1.8c-0.5-0.5-1.3-0.5-1.8,0c-0.5,0.5-0.5,1.3,0,1.8     C478.2,48.7,479,48.7,479.5,48.2z" class="st0_1626640778283" vector-effect="non-scaling-stroke"/>
		</g>
	</g>
	<g>
		<g>
			<polygon points="447.1,26.5 473.6,26.5 482.9,35.8 482.7,36.1 473.4,26.8 447.2,26.8 427.4,46.6 395.1,46.6      395.1,46.3 427.3,46.3" class="st0_1626640778283" vector-effect="non-scaling-stroke"/>
		</g>
		<g>
			<circle r="1.3" cy="46.4" cx="395.1" class="st0_1626640778283" vector-effect="non-scaling-stroke"/>
		</g>
		<g>
			<path d="M481.9,36.8c0.5,0.5,1.3,0.5,1.8,0c0.5-0.5,0.5-1.3,0-1.8c-0.5-0.5-1.3-0.5-1.8,0     C481.4,35.5,481.4,36.3,481.9,36.8z" class="st0_1626640778283" vector-effect="non-scaling-stroke"/>
		</g>
	</g>
	<g>
		<g>
			<polygon points="454.5,39.4 467.9,39.4 467.9,39.7 454.6,39.7 439.5,54.8 406.1,54.8 406.1,54.5 439.4,54.5" class="st0_1626640778283" vector-effect="non-scaling-stroke"/>
		</g>
		<g>
			<circle r="1.3" cy="54.7" cx="406.1" class="st0_1626640778283" vector-effect="non-scaling-stroke"/>
		</g>
		<g>
			<circle r="1.3" cy="39.6" cx="467.8" class="st0_1626640778283" vector-effect="non-scaling-stroke"/>
		</g>
	</g>
	<g>
		<g>
			<polygon points="481.9,71.9 482.1,72.1 457.6,96.6 393.4,96.6 393.4,96.2 457.5,96.2" class="st0_1626640778283" vector-effect="non-scaling-stroke"/>
		</g>
		<g>
			<path d="M393.5,97.7c-0.7,0-1.3-0.6-1.3-1.3c0-0.7,0.6-1.3,1.3-1.3c0.7,0,1.3,0.6,1.3,1.3     C394.8,97.1,394.2,97.7,393.5,97.7z" class="st0_1626640778283" vector-effect="non-scaling-stroke"/>
		</g>
		<g>
			<path d="M482.8,72.9c0.5-0.5,0.5-1.3,0-1.8c-0.5-0.5-1.3-0.5-1.8,0c-0.5,0.5-0.5,1.3,0,1.8     C481.5,73.4,482.3,73.4,482.8,72.9z" class="st0_1626640778283" vector-effect="non-scaling-stroke"/>
		</g>
	</g>
	<g>
		<g>
			<polygon points="340.8,82.8 351.1,82.8 381.2,112.9 474.5,112.9 474.5,113.2 381,113.2 351,83.1 340.9,83.1      329.1,94.9 296.7,94.9 287.2,104.5 287,104.2 296.6,94.6 329,94.6" class="st0_1626640778283" vector-effect="non-scaling-stroke"/>
		</g>
		<g>
			<path d="M288,105.2c-0.5,0.5-1.3,0.5-1.8,0c-0.5-0.5-0.5-1.3,0-1.8c0.5-0.5,1.3-0.5,1.8,0     C288.5,103.9,288.5,104.7,288,105.2z" class="st0_1626640778283" vector-effect="non-scaling-stroke"/>
		</g>
		<g>
			<path d="M474.4,114.3c0.7,0,1.3-0.6,1.3-1.3c0-0.7-0.6-1.3-1.3-1.3c-0.7,0-1.3,0.6-1.3,1.3     C473.2,113.7,473.7,114.3,474.4,114.3z" class="st0_1626640778283" vector-effect="non-scaling-stroke"/>
		</g>
	</g>
	<g>
		<g>
			<polygon points="341.8,92 352.8,92 381.8,121 479.4,121 479.4,121.4 381.6,121.4 352.6,92.3 341.9,92.3 333.5,100.7      299.2,100.7 290.5,109.4 290.3,109.2 299.1,100.4 333.4,100.4" class="st0_1626640778283" vector-effect="non-scaling-stroke"/>
		</g>
		<g>
			<path d="M291.3,110.1c-0.5,0.5-1.3,0.5-1.8,0c-0.5-0.5-0.5-1.3,0-1.8c0.5-0.5,1.3-0.5,1.8,0     C291.8,108.8,291.8,109.6,291.3,110.1z" class="st0_1626640778283" vector-effect="non-scaling-stroke"/>
		</g>
		<g>
			<path d="M479.4,122.5c0.7,0,1.3-0.6,1.3-1.3c0-0.7-0.6-1.3-1.3-1.3c-0.7,0-1.3,0.6-1.3,1.3     C478.1,121.9,478.7,122.5,479.4,122.5z" class="st0_1626640778283" vector-effect="non-scaling-stroke"/>
		</g>
	</g>
	<g>
		<g>
			<polygon points="342.4,103.7 342.6,104 331.3,115.2 296.2,115.2 296.2,114.9 331.2,114.9" class="st0_1626640778283" vector-effect="non-scaling-stroke"/>
		</g>
		<g>
			<circle r="1.3" cy="115.1" cx="296.3" class="st0_1626640778283" vector-effect="non-scaling-stroke"/>
		</g>
		<g>
			<path d="M343.3,104.8c0.5-0.5,0.5-1.3,0-1.8c-0.5-0.5-1.3-0.5-1.8,0c-0.5,0.5-0.5,1.3,0,1.8     C342,105.3,342.8,105.3,343.3,104.8z" class="st0_1626640778283" vector-effect="non-scaling-stroke"/>
		</g>
	</g>
	<g>
		<g>
			<polygon points="371.5,178.6 406,178.6 432.4,205 432.2,205.2 405.9,179 371.5,179" class="st0_1626640778283" vector-effect="non-scaling-stroke"/>
		</g>
		<g>
			<path d="M371.5,180.1c-0.7,0-1.3-0.6-1.3-1.3c0-0.7,0.6-1.3,1.3-1.3c0.7,0,1.3,0.6,1.3,1.3     C372.8,179.5,372.2,180.1,371.5,180.1z" class="st0_1626640778283" vector-effect="non-scaling-stroke"/>
		</g>
		<g>
			<path d="M431.3,206c0.5,0.5,1.3,0.5,1.8,0c0.5-0.5,0.5-1.3,0-1.8c-0.5-0.5-1.3-0.5-1.8,0     C430.8,204.7,430.8,205.5,431.3,206z" class="st0_1626640778283" vector-effect="non-scaling-stroke"/>
		</g>
	</g>
	<g>
		<g>
			<polygon points="417.8,178.3 434.7,195.2 481.5,195.2 481.5,195.6 434.6,195.6 417.5,178.5" class="st0_1626640778283" vector-effect="non-scaling-stroke"/>
		</g>
		<g>
			<path d="M416.8,179.3c-0.5-0.5-0.5-1.3,0-1.8c0.5-0.5,1.3-0.5,1.8,0c0.5,0.5,0.5,1.3,0,1.8     C418.1,179.8,417.3,179.8,416.8,179.3z" class="st0_1626640778283" vector-effect="non-scaling-stroke"/>
		</g>
		<g>
			<circle r="1.3" cy="195.4" cx="481.4" class="st0_1626640778283" vector-effect="non-scaling-stroke"/>
		</g>
	</g>
</g></g></svg>