<svg width="400.3" height="120" xmlns="http://www.w3.org/2000/svg" xml:space="preserve" version="1.1">

 <g>
  <title>Layer 1</title>
  <g id="svg_5">
   <g id="svg_6">
    <path id="svg_7" fill="#FFFFFF" d="m44.69999,116.3l-5.5,0l-17,-23.8l0,23.8l-6.5,0l0,-35.4l5.7,0l16.9,23.8l0,-23.8l6.4,0l0,35.4z" class="st3"/>
    <path id="svg_8" fill="#FFFFFF" d="m78.59999,116.3l-26.7,0l0,-35.4l25.8,0l0,5.7l-19.4,0l0,9.2l16.1,0l0,5.7l-16.1,0l0,9.2l20.3,0l0,5.6z" class="st3"/>
    <path id="svg_9" fill="#FFFFFF" d="m99.09999,116.3l-6.5,0l0,-29.7l-10.6,0l0,-5.7l27.6,0l0,5.7l-10.6,0l0,29.7l0.1,0z" class="st3"/>
    <path id="svg_10" fill="#FFFFFF" d="m153.09999,116.3l-6.5,0l-7.6,-24.1l-7.7,24.1l-6.4,0l-11.3,-35.4l7.2,0l7.3,27.2l7.3,-27.2l7.2,0l7.3,27.2l7.3,-27.2l7.2,0l-11.3,35.4z" class="st3"/>
    <path id="svg_11" fill="#FFFFFF" d="m184.49999,116.8c-3.5,0 -6.6,-0.8 -9.5,-2.5c-2.9,-1.6 -5.1,-3.8 -6.8,-6.6c-1.7,-2.8 -2.5,-5.8 -2.5,-9.1c0,-3.3 0.8,-6.4 2.5,-9.1c1.7,-2.8 4,-4.9 6.8,-6.6c2.9,-1.6 6,-2.4 9.5,-2.4c3.5,0 6.6,0.8 9.5,2.4c2.9,1.6 5.1,3.8 6.8,6.6c1.7,2.8 2.5,5.8 2.5,9.1c0,3.3 -0.8,6.4 -2.5,9.1c-1.7,2.8 -4,4.9 -6.8,6.6c-2.8,1.6 -6,2.5 -9.5,2.5zm0,-7c2.1,0 4,-0.4 5.8,-1.3c1.8,-0.9 3.3,-2.2 4.4,-3.8c1.1,-1.7 1.7,-3.7 1.7,-6c0,-2.3 -0.6,-4.3 -1.7,-6s-2.6,-3 -4.4,-3.8c-1.8,-0.9 -3.8,-1.3 -5.8,-1.3c-2.1,0 -4.1,0.4 -5.9,1.3c-1.8,0.9 -3.3,2.2 -4.4,3.8s-1.7,3.7 -1.7,6c0,2.3 0.6,4.3 1.7,6c1.1,1.7 2.6,2.9 4.4,3.8c1.9,0.8 3.8,1.3 5.9,1.3z" class="st3"/>
    <path id="svg_12" fill="#FFFFFF" d="m237.59999,116.3l-8.1,0l-7.6,-9.7c-0.5,0 -1.1,0 -1.7,0l-5,0l0,9.7l-6.5,0l0,-35.4l11.5,0c3.6,0 6.5,0.6 8.8,1.7c2.3,1.1 4.1,2.6 5.2,4.6c1.1,1.9 1.7,4.2 1.7,6.7c0,2.6 -0.6,4.8 -1.8,6.8c-1.2,2 -3,3.5 -5.4,4.5l8.9,11.1zm-17.4,-15.4c3.2,0 5.5,-0.6 7,-1.9c1.5,-1.3 2.2,-3 2.2,-5.3c0,-2.2 -0.7,-4 -2.2,-5.2c-1.5,-1.3 -3.8,-1.9 -7,-1.9l-5,0l0,14.4l5,0l0,-0.1z" class="st3"/>
    <path id="svg_13" fill="#FFFFFF" d="m272.09999,116.3l-7.2,0l-12.2,-14.6l-3.7,4.4l0,10.2l-6.5,0l0,-35.4l6.5,0l0,16.2l13.5,-16.2l7.5,0l-13.7,16.5l15.8,18.9z" class="st3"/>
   </g>
   <g id="svg_14">
    <polygon id="svg_15" fill="#FFFFFF" points="37.399993896484375,4.3000006675720215 37.399993896484375,14.300000667572021 57.599998474121094,14.300000667572021 57.599998474121094,71.00000238418579 68.99999237060547,71.00000238418579 68.99999237060547,14.300000667572021 89.19998931884766,14.300000667572021 89.19998931884766,4.3000006675720215 " class="st3"/>
    <path id="svg_16" fill="#FFFFFF" d="m136.89999,49.9l0.5,-0.2c4.5,-2 7.9,-4.9 10.1,-8.5c2.2,-3.7 3.3,-7.9 3.3,-12.7c0,-4.7 -1.1,-8.9 -3.2,-12.5c-2.1,-3.6 -5.4,-6.5 -9.8,-8.5c-4.4,-2.1 -10,-3.1 -16.7,-3.1l-21.4,0l0,66.7l11.4,0l0,-18.5l10,0c1.1,0 2.2,0 3.2,-0.1l0.2,0l14.5,18.5l14.4,0l-16.5,-21.1zm2.2,-21.5c0,4.4 -1.5,7.8 -4.4,10.4c-2.9,2.5 -7.4,3.8 -13.5,3.8l-10,0l0,-28.3l10,0c6.1,0 10.7,1.3 13.5,3.8c2.9,2.5 4.4,6 4.4,10.3z" class="st3"/>
    <path id="svg_17" fill="#FFFFFF" d="m226.29999,20.4c-3.2,-5.2 -7.5,-9.3 -12.9,-12.4c-5.4,-3.1 -11.4,-4.6 -17.9,-4.6c-6.5,0 -12.5,1.6 -17.9,4.6c-5.4,3.1 -9.7,7.2 -12.9,12.4c-3.2,5.2 -4.8,10.9 -4.8,17.2c0,6.3 1.6,12.1 4.8,17.2c3.2,5.2 7.5,9.3 12.9,12.4c5.4,3.1 11.4,4.6 17.9,4.6c6.5,0 12.5,-1.6 17.9,-4.6c5.4,-3.1 9.7,-7.3 12.9,-12.4c3.2,-5.2 4.8,-10.9 4.8,-17.2c0,-6.2 -1.6,-12 -4.8,-17.2zm-7.7,17.2c0,4.5 -1.1,8.5 -3.2,11.7c-2.1,3.2 -5,5.7 -8.5,7.5c-3.5,1.7 -7.3,2.6 -11.3,2.6c-4.1,0 -7.9,-0.9 -11.4,-2.6c-3.5,-1.7 -6.3,-4.2 -8.5,-7.5c-2.1,-3.2 -3.2,-7.2 -3.2,-11.7c0,-4.5 1.1,-8.4 3.2,-11.7c2.1,-3.2 5,-5.8 8.5,-7.5c3.5,-1.7 7.3,-2.6 11.4,-2.6c4,0 7.9,0.9 11.3,2.6c3.5,1.7 6.3,4.2 8.5,7.5c2.1,3.3 3.2,7.2 3.2,11.7z" class="st3"/>
    <polygon id="svg_18" fill="#FFFFFF" points="285.20001220703125,4.3000006675720215 285.20001220703125,50.50000238418579 252.3999786376953,4.3000006675720215 242.1999969482422,4.3000006675720215 242.1999969482422,71.00000238418579 253.59999084472656,71.00000238418579 253.59999084472656,24.70000123977661 286.6000061035156,70.79999780654907 286.70001220703125,71.00000238418579 296.6000061035156,71.00000238418579 296.6000061035156,4.3000006675720215 " class="st3"/>
    <rect id="svg_19" fill="#FFFFFF" height="66.7" width="11.4" class="st3" y="4.3" x="310.89999"/>
    <path id="svg_20" fill="#FFFFFF" d="m385.49999,53.3c-2,1.9 -4.4,3.3 -7.1,4.3c-3,1.1 -6.1,1.7 -9.4,1.7c-4,0 -7.8,-0.9 -11.3,-2.6c-3.5,-1.7 -6.3,-4.2 -8.5,-7.5c-2.1,-3.2 -3.2,-7.2 -3.2,-11.7c0,-4.5 1.1,-8.4 3.2,-11.7c2.1,-3.2 5,-5.8 8.5,-7.5c3.5,-1.7 7.3,-2.6 11.3,-2.6c3.3,0 6.5,0.6 9.4,1.7c2.7,1 5,2.5 7.1,4.4l0.4,0.4l8.2,-8.2l-0.4,-0.4c-3.1,-3 -6.7,-5.5 -10.6,-7.4c-4.3,-2 -9,-3 -14,-3c-6.5,0 -12.5,1.6 -17.9,4.6c-5.3,3.1 -9.7,7.2 -12.9,12.4c-3.2,5.2 -4.8,10.9 -4.8,17.2c0,6.3 1.6,12.1 4.8,17.2c3.2,5.2 7.5,9.3 12.9,12.4c5.3,3.1 11.4,4.6 17.9,4.6c5.1,0 9.9,-1 14.2,-3.1c4.1,-1.9 7.5,-4.5 10.2,-7.5l0.3,-0.4l-7.9,-7.9l-0.4,0.6z" class="st3"/>
    <polygon id="svg_21" fill="#FFFFFF" points="16.899991989135742,4.3000006675720215 6.199987888336182,14.300000667572021 15.799993515014648,14.300000667572021 15.799993515014648,71.00000238418579 27.199987411499023,71.00000238418579 27.199987411499023,4.3000006675720215 " class="st3"/>
   </g>
  </g>
 </g>
</svg>